<svg width="20" height="20" viewBox="0 0 20 20" fill="none" xmlns="http://www.w3.org/2000/svg">
                        <path fill-rule="evenodd" clip-rule="evenodd" d="M1.50312 2.11274C1.50105 2.07542 1.5 2.03783 1.5 2C1.5 0.89543 2.39543 0 3.5 0H17.4C18.0075 0 18.5 0.492476 18.5 1.1V18.8C18.5 19.4627 17.9627 20 17.3 20H2.7C2.03725 20 1.5 19.4627 1.5 18.8V2.2C1.5 2.17066 1.50105 2.14156 1.50312 2.11274ZM17.4392 1.00799C17.4272 1.00285 17.4139 1 17.4 1H3.5C2.94772 1 2.5 1.44772 2.5 2C2.5 2.55228 2.94772 3 3.5 3H17.5V1.1C17.5 1.0587 17.475 1.02325 17.4392 1.00799ZM10.0002 10.7005C10.9206 10.7005 11.6668 9.95433 11.6668 9.03385C11.6668 8.11338 10.9206 7.36719 10.0002 7.36719C9.07969 7.36719 8.3335 8.11338 8.3335 9.03385C8.3335 9.95433 9.07969 10.7005 10.0002 10.7005ZM7.44167 12.3544C7.79185 11.8504 8.09232 11.4481 8.38949 11.1562C8.83699 11.4959 9.39504 11.6974 10.0002 11.6974C10.6052 11.6974 11.1633 11.4959 11.6107 11.1563C11.9079 11.4481 12.2083 11.8504 12.5585 12.3543C13.161 13.2211 13.3879 14.09 13.4647 14.7363C13.6112 15.9693 12.5529 16.7028 11.6265 16.7028H8.37393C7.44739 16.7028 6.38918 15.9692 6.53564 14.7363C6.61243 14.0899 6.83938 13.2212 7.44167 12.3544Z" fill="white"/>
                        </svg> 