<svg width="17" height="16" viewBox="0 0 17 16" fill="none" xmlns="http://www.w3.org/2000/svg">
<g clip-path="url(#clip0_1_425)">
<path d="M0.916993 2C0.916993 1.46957 1.12771 0.960858 1.50278 0.585785C1.87785 0.210713 2.38656 -1.27029e-06 2.91699 -1.22392e-06L14.917 -1.74846e-07C15.4474 -1.28474e-07 15.9561 0.210714 16.3312 0.585787C16.7063 0.960859 16.917 1.46957 16.917 2L16.917 14C16.917 14.5304 16.7063 15.0391 16.3312 15.4142C15.9561 15.7893 15.4474 16 14.917 16L2.91699 16C2.38656 16 1.87785 15.7893 1.50278 15.4142C1.12771 15.0391 0.916992 14.5304 0.916992 14L0.916993 2ZM5.41699 8.5L11.21 8.5L9.06299 10.646C8.96911 10.7399 8.91636 10.8672 8.91636 11C8.91636 11.1328 8.96911 11.2601 9.06299 11.354C9.15688 11.4479 9.28422 11.5006 9.41699 11.5006C9.54977 11.5006 9.67711 11.4479 9.77099 11.354L12.771 8.354C12.8176 8.30755 12.8545 8.25238 12.8797 8.19163C12.9049 8.13089 12.9179 8.06577 12.9179 8C12.9179 7.93423 12.9049 7.86911 12.8797 7.80837C12.8545 7.74762 12.8176 7.69245 12.771 7.646L9.77099 4.646C9.67711 4.55211 9.54977 4.49937 9.41699 4.49937C9.28422 4.49937 9.15688 4.55211 9.06299 4.646C8.96911 4.73989 8.91636 4.86722 8.91636 5C8.91636 5.13277 8.96911 5.26011 9.06299 5.354L11.21 7.5L5.41699 7.5C5.28438 7.5 5.15721 7.55268 5.06344 7.64645C4.96967 7.74021 4.91699 7.86739 4.91699 8C4.91699 8.13261 4.96967 8.25978 5.06344 8.35355C5.15721 8.44732 5.28438 8.5 5.41699 8.5Z" fill="white"/>
</g>
<defs>
<clipPath id="clip0_1_425">
<rect width="16" height="16" fill="white" transform="translate(16.917 16) rotate(-180)"/>
</clipPath>
</defs>
</svg>
