<svg width="20" height="20" viewBox="0 0 20 20" fill="none" xmlns="http://www.w3.org/2000/svg">
                        <path fill-rule="evenodd" clip-rule="evenodd" d="M2.22217 0.75V19.25C2.22217 19.6642 2.55795 20 2.97217 20H17.0277C17.4419 20 17.7777 19.6642 17.7777 19.25L17.7777 7.75C17.7777 7.33579 17.4419 7 17.0277 7H11.75C11.3358 7 11 6.66421 11 6.25V0.75C11 0.335787 10.6642 0 10.25 0H2.97217C2.55795 0 2.22217 0.335786 2.22217 0.75ZM5 2.5C4.72386 2.5 4.5 2.72386 4.5 3C4.5 3.27614 4.72386 3.5 5 3.5H8C8.27614 3.5 8.5 3.27614 8.5 3C8.5 2.72386 8.27614 2.5 8 2.5H5ZM5 4.5C4.72386 4.5 4.5 4.72386 4.5 5C4.5 5.27614 4.72386 5.5 5 5.5H8C8.27614 5.5 8.5 5.27614 8.5 5C8.5 4.72386 8.27614 4.5 8 4.5H5ZM10.8725 14.0403C10.8423 13.9686 10.7705 13.8846 10.6244 13.7974L10.6203 13.7949C10.4846 13.7095 10.2628 13.6264 9.93953 13.5534L9.93637 13.5527C9.64949 13.4829 9.38731 13.3998 9.15048 13.3027C8.91201 13.2036 8.70257 13.0811 8.52672 12.9343L8.52522 12.933C8.34937 12.7832 8.21228 12.6054 8.11613 12.4005C8.01767 12.1906 7.97176 11.9519 7.97176 11.6898C7.97176 11.4356 8.02023 11.1931 8.11789 10.9643L8.1189 10.9619C8.21918 10.735 8.35945 10.5339 8.5386 10.3594L8.53997 10.3581C8.72459 10.1816 8.9441 10.0451 9.19567 9.94729C9.29349 9.90925 9.395 9.87874 9.50005 9.85558V9C9.50005 8.72386 9.72391 8.5 10 8.5C10.2762 8.5 10.5 8.72386 10.5 9V9.83806C10.7432 9.88013 10.9659 9.95755 11.1658 10.0726C11.4806 10.2538 11.7256 10.4987 11.8959 10.8065C12.0304 11.0468 12.111 11.3081 12.1383 11.5884C12.1617 11.8291 11.9637 12.0075 11.7488 12.0075H11.2893C11.0604 12.0075 10.9109 11.8253 10.8722 11.6528C10.8564 11.5822 10.8292 11.5113 10.7892 11.4398L10.7867 11.4353C10.7238 11.3155 10.63 11.2142 10.4993 11.1316L10.4978 11.1307C10.3819 11.056 10.2311 11.0128 10.0347 11.0128C9.81823 11.0128 9.66249 11.0519 9.55375 11.1145L9.55215 11.1154C9.4355 11.1811 9.35866 11.2598 9.31095 11.3488C9.26057 11.4489 9.23587 11.5528 9.23587 11.6631C9.23587 11.7486 9.24793 11.8198 9.26875 11.8792C9.2884 11.9244 9.32454 11.9746 9.38668 12.028C9.4489 12.0779 9.54586 12.1326 9.68612 12.1886C9.82715 12.2449 10.0118 12.3031 10.2425 12.3625C10.6651 12.4722 11.0221 12.6061 11.3081 12.7668C11.5986 12.9301 11.8251 13.1363 11.9764 13.3893C12.1288 13.6441 12.1999 13.9452 12.1999 14.2834C12.1999 14.5611 12.1489 14.8203 12.0439 15.0583C11.9423 15.2958 11.7931 15.5015 11.5981 15.6739C11.4067 15.8421 11.1793 15.9722 10.9199 16.0653L10.9182 16.0659C10.7858 16.112 10.6464 16.1459 10.5 16.1681V17C10.5 17.2761 10.2762 17.5 10 17.5C9.72391 17.5 9.50005 17.2761 9.50005 17V16.1487C9.25552 16.1006 9.03209 16.0182 8.83166 15.8993C8.49682 15.7008 8.23793 15.4402 8.06133 15.1174C7.92434 14.8669 7.84044 14.6033 7.81138 14.3276C7.78585 14.0854 7.98543 13.907 8.19987 13.907H8.67291C8.89229 13.907 9.05004 14.0775 9.08064 14.2647C9.10638 14.4223 9.15725 14.5415 9.22603 14.6309C9.32785 14.7596 9.44947 14.8489 9.59266 14.9032C9.75185 14.9598 9.90665 14.9872 10.0579 14.9872C10.2745 14.9872 10.4411 14.9542 10.5657 14.8979L10.567 14.8973C10.6995 14.8387 10.7897 14.763 10.8488 14.6748C10.9088 14.5852 10.9404 14.4819 10.9404 14.3583C10.9404 14.2425 10.918 14.1394 10.8751 14.0461L10.8725 14.0403Z" fill="white"/>
                        <path d="M12 0.965686V5.6C12 5.82091 12.1791 6 12.4 6H17.0343C17.3907 6 17.5691 5.56914 17.3172 5.31716L12.6828 0.682842C12.4309 0.430856 12 0.609324 12 0.965686Z" fill="white"/>
                    </svg>