<svg width="21" height="20" viewBox="0 0 21 20" fill="none" xmlns="http://www.w3.org/2000/svg">
                        <path d="M6.25135 3L5.9198 3.25V10.5882L7.41042 8.73786C7.69227 8.388 8.22458 8.39274 8.50022 8.74757L9.89841 10.5475V3.1C9.89841 3.06629 9.90082 3.03288 9.90554 3H6.25135Z" fill="white"/>
                        <path fill-rule="evenodd" clip-rule="evenodd" d="M2.44162 2.11274C2.43956 2.07542 2.43851 2.03783 2.43851 2C2.43851 0.895431 3.32915 0 4.42782 0H18.2535C18.8577 0 19.3476 0.492482 19.3476 1.1V18.8C19.3476 19.4627 18.8132 20 18.154 20H3.63209C2.97289 20 2.43851 19.4627 2.43851 18.8V2.2C2.43851 2.17066 2.43956 2.14156 2.44162 2.11274ZM3.43316 2C3.43316 1.44772 3.87849 1 4.42782 1H18.2535C18.3084 1 18.3529 1.04477 18.3529 1.1V3H11.2246L10.8931 3.25V11.419C10.8931 12.0848 10.0557 12.3746 9.64806 11.8498L7.94723 9.66036L6.16246 11.8759C5.74955 12.3884 4.92514 12.0949 4.92514 11.4353V3.1C4.92514 3.06629 4.92756 3.03288 4.93228 3H4.42782C3.87849 3 3.43316 2.55228 3.43316 2Z" fill="white"/>
                    </svg>