<svg width="39" height="33" viewBox="0 0 39 33" fill="none" xmlns="http://www.w3.org/2000/svg">
<path d="M22.6034 16.3119V24.7206L32.385 12.2005H21.6319C21.6319 12.2005 21.2778 12.2201 20.9702 12.3509C20.6626 12.4817 20.4267 12.8366 20.4267 12.8366L11.1237 24.6939C11.1237 24.6939 10.6936 25.9948 11.6741 26.869C12.6546 27.7433 13.8234 27.373 13.8234 27.373L22.6034 16.3119Z" fill="#1D499E"/>
<path d="M25.2503 25.4897L35.6815 12.2005C35.6815 12.2005 36.7688 11.9489 37.5161 12.7045C38.2634 13.4601 38.25 14.1103 38.25 14.1103V32.625H22.8914V28.0361H33.6896V25.4897H25.2503Z" fill="#1D499E"/>
<path d="M32.8258 2.79382H24.3672L22.5156 0.0357492H32.8258V2.79382Z" fill="#1D499E"/>
<path d="M24.4734 4.08324L22.6684 5.90999L22.6286 5.9458H24.6504V6.93969C24.6504 6.93969 24.5459 10.7029 28.7745 10.7029C33.0031 10.7029 32.8213 6.99871 32.8213 6.99871L32.7904 4.08324H24.4734Z" fill="#1D499E"/>
<path d="M0 14.4342C0 13.1783 1.00591 12.1603 2.24676 12.1603H4.50612V27.9121H2.24676C1.00591 27.9121 0 26.8941 0 25.6382V14.4342Z" fill="#1D499E"/>
<path d="M4.50612 27.9121H20.1089V30.1771C20.1089 31.4329 19.103 32.4509 17.8621 32.4509H6.75288C5.51203 32.4509 4.50612 31.4329 4.50612 30.1771V27.9121Z" fill="#1D499E"/>
</svg>
