<svg width="49" height="47" viewBox="0 0 49 47" fill="none" xmlns="http://www.w3.org/2000/svg">
<path d="M23.2069 8.41907L40.9043 19.4087L48.6833 14.701L30.8504 3.7345L23.2069 8.41907Z" fill="#1D499E"/>
<path d="M30.7438 25.4751L13.0722 14.5728L21.5692 9.38267L39.0473 20.5137L30.7438 25.4751Z" fill="#1D499E"/>
<path d="M12.9443 17.2132L13.0509 36.3561L29.9982 46.9343L29.7644 27.3489L12.9443 17.2132Z" fill="#1D499E"/>
<path fill-rule="evenodd" clip-rule="evenodd" d="M48.7773 17.2345V36.3561L31.8722 46.6196L31.8083 27.4341L48.7773 17.2345ZM34.1714 28.8198V32.5551L37.8905 30.3644V26.6764L34.1714 28.8198Z" fill="#1D499E"/>
<path fill-rule="evenodd" clip-rule="evenodd" d="M11.6971 22.8189C17.728 22.8189 22.6169 17.9294 22.6169 11.8979C22.6169 5.86638 17.728 0.976868 11.6971 0.976868C5.6663 0.976868 0.777344 5.86638 0.777344 11.8979C0.777344 17.9294 5.6663 22.8189 11.6971 22.8189ZM17.1477 6.58939C16.8551 6.59154 16.5752 6.70945 16.3692 6.91735C16.3585 6.92799 16.3492 6.94004 16.3399 6.95193L11.2134 13.4849L8.12321 10.3936C7.91558 10.1858 7.63393 10.069 7.34022 10.069C7.04651 10.0689 6.7648 10.1855 6.55707 10.3932C6.34933 10.6008 6.23259 10.8825 6.23252 11.1763C6.23245 11.47 6.34906 11.7517 6.55669 11.9595L10.464 15.8657C10.5693 15.9708 10.6946 16.0537 10.8326 16.1092C10.9706 16.1648 11.1184 16.192 11.2672 16.1892C11.4159 16.1864 11.5625 16.1537 11.6983 16.0929C11.8341 16.0322 11.9563 15.9447 12.0576 15.8357L17.9508 8.46751C18.1545 8.25739 18.2667 7.97518 18.263 7.68255C18.2592 7.38993 18.1398 7.11068 17.9308 6.90584C17.7218 6.701 17.4403 6.58723 17.1477 6.58939Z" fill="#1D499E"/>
</svg>
