<svg width="20" height="20" viewBox="0 0 20 20" fill="none" xmlns="http://www.w3.org/2000/svg">
                        <path d="M9.93233 1.54392L1.18996 9.53425C1.12259 9.59582 1.16616 9.70806 1.25743 9.70806H3.14979C3.20502 9.70806 3.24979 9.75283 3.24979 9.80806V18.3823C3.24979 18.4375 3.29456 18.4823 3.34979 18.4823H7.64979C7.70502 18.4823 7.74979 18.4375 7.74979 18.3823V13.0984C7.74979 13.0432 7.79456 12.9984 7.84979 12.9984H12.1498C12.205 12.9984 12.2498 13.0432 12.2498 13.0984V18.3823C12.2498 18.4375 12.2946 18.4823 12.3498 18.4823H16.6498C16.705 18.4823 16.7498 18.4375 16.7498 18.3823V9.80806C16.7498 9.75283 16.7946 9.70806 16.8498 9.70806H18.7422C18.8334 9.70806 18.877 9.59582 18.8096 9.53425L10.0673 1.54392C10.0291 1.509 9.97053 1.509 9.93233 1.54392Z" fill="white" stroke="white"/>
                    </svg>