<svg width="29" height="43" viewBox="0 0 29 43" fill="none" xmlns="http://www.w3.org/2000/svg">
<path d="M18.2521 11.6273C18.4349 11.4716 18.6831 11.3832 18.9427 11.3816C19.2023 11.38 19.4521 11.4652 19.6375 11.6187C19.8229 11.7721 19.9288 11.9813 19.9321 12.2005C19.9355 12.4197 19.8359 12.6311 19.6552 12.7885L14.4271 18.3079C14.3372 18.3895 14.2289 18.4551 14.1084 18.5006C13.9879 18.5461 13.8578 18.5706 13.7259 18.5727C13.5939 18.5748 13.4628 18.5544 13.3404 18.5128C13.218 18.4712 13.1067 18.4091 13.0133 18.3304L9.54701 15.4043C9.36281 15.2487 9.25936 15.0376 9.25942 14.8176C9.25948 14.5975 9.36305 14.3865 9.54734 14.231C9.73163 14.0754 9.98155 13.9881 10.2421 13.9881C10.5027 13.9882 10.7525 14.0756 10.9367 14.2313L13.6782 16.5469L18.2261 11.6532C18.2344 11.6443 18.2426 11.6353 18.2521 11.6273Z" fill="#1D499E"/>
<path fill-rule="evenodd" clip-rule="evenodd" d="M14.2533 42.5C6.28995 32.0551 0 19.8792 0 13.0547C0 6.23024 7.20254 0.0968599 14.4978 0.000982161C21.7931 -0.0948956 28.75 6.84594 28.75 13.3259C28.75 19.8058 22.5527 32.1206 14.2533 42.5ZM14.3752 21.4632C18.4105 21.4632 21.6818 18.242 21.6818 14.2685C21.6818 10.2949 18.4105 7.07373 14.3752 7.07373C10.3399 7.07373 7.0686 10.2949 7.0686 14.2685C7.0686 18.242 10.3399 21.4632 14.3752 21.4632Z" fill="#1D499E"/>
</svg>
