<svg width="20" height="20" viewBox="0 0 20 20" fill="none" xmlns="http://www.w3.org/2000/svg">
                        <path d="M15.3333 1.25C15.687 1.25 16.0261 1.3817 16.2761 1.61612C16.5262 1.85054 16.6667 2.16848 16.6667 2.5V17.5C16.6667 17.8315 16.5262 18.1495 16.2761 18.3839C16.0261 18.6183 15.687 18.75 15.3333 18.75H4.66667C4.31304 18.75 3.97391 18.6183 3.72386 18.3839C3.47381 18.1495 3.33333 17.8315 3.33333 17.5V2.5C3.33333 2.16848 3.47381 1.85054 3.72386 1.61612C3.97391 1.3817 4.31304 1.25 4.66667 1.25H15.3333ZM4.66667 0C3.95942 0 3.28115 0.263392 2.78105 0.732233C2.28095 1.20107 2 1.83696 2 2.5V17.5C2 18.163 2.28095 18.7989 2.78105 19.2678C3.28115 19.7366 3.95942 20 4.66667 20H15.3333C16.0406 20 16.7189 19.7366 17.219 19.2678C17.719 18.7989 18 18.163 18 17.5V2.5C18 1.83696 17.719 1.20107 17.219 0.732233C16.7189 0.263392 16.0406 0 15.3333 0H4.66667Z" fill="white"/>
                        <path d="M4.66667 3.125C4.66667 2.95924 4.7369 2.80027 4.86193 2.68306C4.98695 2.56585 5.15652 2.5 5.33333 2.5H14.6667C14.8435 2.5 15.013 2.56585 15.1381 2.68306C15.2631 2.80027 15.3333 2.95924 15.3333 3.125V5.625C15.3333 5.79076 15.2631 5.94973 15.1381 6.06694C15.013 6.18415 14.8435 6.25 14.6667 6.25H5.33333C5.15652 6.25 4.98695 6.18415 4.86193 6.06694C4.7369 5.94973 4.66667 5.79076 4.66667 5.625V3.125ZM4.66667 8.125C4.66667 7.95924 4.7369 7.80027 4.86193 7.68306C4.98695 7.56585 5.15652 7.5 5.33333 7.5H6.66667C6.84348 7.5 7.01305 7.56585 7.13807 7.68306C7.2631 7.80027 7.33333 7.95924 7.33333 8.125V9.375C7.33333 9.54076 7.2631 9.69973 7.13807 9.81694C7.01305 9.93415 6.84348 10 6.66667 10H5.33333C5.15652 10 4.98695 9.93415 4.86193 9.81694C4.7369 9.69973 4.66667 9.54076 4.66667 9.375V8.125ZM4.66667 11.875C4.66667 11.7092 4.7369 11.5503 4.86193 11.4331C4.98695 11.3158 5.15652 11.25 5.33333 11.25H6.66667C6.84348 11.25 7.01305 11.3158 7.13807 11.4331C7.2631 11.5503 7.33333 11.7092 7.33333 11.875V13.125C7.33333 13.2908 7.2631 13.4497 7.13807 13.5669C7.01305 13.6842 6.84348 13.75 6.66667 13.75H5.33333C5.15652 13.75 4.98695 13.6842 4.86193 13.5669C4.7369 13.4497 4.66667 13.2908 4.66667 13.125V11.875ZM4.66667 15.625C4.66667 15.4592 4.7369 15.3003 4.86193 15.1831C4.98695 15.0658 5.15652 15 5.33333 15H6.66667C6.84348 15 7.01305 15.0658 7.13807 15.1831C7.2631 15.3003 7.33333 15.4592 7.33333 15.625V16.875C7.33333 17.0408 7.2631 17.1997 7.13807 17.3169C7.01305 17.4342 6.84348 17.5 6.66667 17.5H5.33333C5.15652 17.5 4.98695 17.4342 4.86193 17.3169C4.7369 17.1997 4.66667 17.0408 4.66667 16.875V15.625ZM8.66667 8.125C8.66667 7.95924 8.7369 7.80027 8.86193 7.68306C8.98695 7.56585 9.15652 7.5 9.33333 7.5H10.6667C10.8435 7.5 11.013 7.56585 11.1381 7.68306C11.2631 7.80027 11.3333 7.95924 11.3333 8.125V9.375C11.3333 9.54076 11.2631 9.69973 11.1381 9.81694C11.013 9.93415 10.8435 10 10.6667 10H9.33333C9.15652 10 8.98695 9.93415 8.86193 9.81694C8.7369 9.69973 8.66667 9.54076 8.66667 9.375V8.125ZM8.66667 11.875C8.66667 11.7092 8.7369 11.5503 8.86193 11.4331C8.98695 11.3158 9.15652 11.25 9.33333 11.25H10.6667C10.8435 11.25 11.013 11.3158 11.1381 11.4331C11.2631 11.5503 11.3333 11.7092 11.3333 11.875V13.125C11.3333 13.2908 11.2631 13.4497 11.1381 13.5669C11.013 13.6842 10.8435 13.75 10.6667 13.75H9.33333C9.15652 13.75 8.98695 13.6842 8.86193 13.5669C8.7369 13.4497 8.66667 13.2908 8.66667 13.125V11.875ZM8.66667 15.625C8.66667 15.4592 8.7369 15.3003 8.86193 15.1831C8.98695 15.0658 9.15652 15 9.33333 15H10.6667C10.8435 15 11.013 15.0658 11.1381 15.1831C11.2631 15.3003 11.3333 15.4592 11.3333 15.625V16.875C11.3333 17.0408 11.2631 17.1997 11.1381 17.3169C11.013 17.4342 10.8435 17.5 10.6667 17.5H9.33333C9.15652 17.5 8.98695 17.4342 8.86193 17.3169C8.7369 17.1997 8.66667 17.0408 8.66667 16.875V15.625ZM12.6667 8.125C12.6667 7.95924 12.7369 7.80027 12.8619 7.68306C12.987 7.56585 13.1565 7.5 13.3333 7.5H14.6667C14.8435 7.5 15.013 7.56585 15.1381 7.68306C15.2631 7.80027 15.3333 7.95924 15.3333 8.125V9.375C15.3333 9.54076 15.2631 9.69973 15.1381 9.81694C15.013 9.93415 14.8435 10 14.6667 10H13.3333C13.1565 10 12.987 9.93415 12.8619 9.81694C12.7369 9.69973 12.6667 9.54076 12.6667 9.375V8.125ZM12.6667 11.875C12.6667 11.7092 12.7369 11.5503 12.8619 11.4331C12.987 11.3158 13.1565 11.25 13.3333 11.25H14.6667C14.8435 11.25 15.013 11.3158 15.1381 11.4331C15.2631 11.5503 15.3333 11.7092 15.3333 11.875V16.875C15.3333 17.0408 15.2631 17.1997 15.1381 17.3169C15.013 17.4342 14.8435 17.5 14.6667 17.5H13.3333C13.1565 17.5 12.987 17.4342 12.8619 17.3169C12.7369 17.1997 12.6667 17.0408 12.6667 16.875V11.875Z" fill="white"/>
                    </svg>