<svg width="20" height="20" viewBox="0 0 20 20" fill="none" xmlns="http://www.w3.org/2000/svg">
                        <path fill-rule="evenodd" clip-rule="evenodd" d="M2 0.75V19.25C2 19.6642 2.33579 20 2.75 20H16.8056C17.2198 20 17.5556 19.6642 17.5556 19.25L17.5556 7.75C17.5556 7.33579 17.2198 7 16.8056 7H11.5278C11.1136 7 10.7778 6.66421 10.7778 6.25V0.75C10.7778 0.335787 10.442 0 10.0278 0H2.75C2.33579 0 2 0.335786 2 0.75ZM4.47783 6C4.36738 6 4.27783 6.08954 4.27783 6.2V17.8C4.27783 17.9105 4.36738 18 4.47783 18H6.57783C6.68829 18 6.77783 17.9105 6.77783 17.8V6.2C6.77783 6.08954 6.68829 6 6.57783 6H4.47783ZM8.52783 12.2C8.52783 12.0895 8.61737 12 8.72783 12H10.8278C10.9383 12 11.0278 12.0895 11.0278 12.2V17.8C11.0278 17.9105 10.9383 18 10.8278 18H8.72783C8.61738 18 8.52783 17.9105 8.52783 17.8V12.2ZM12.9778 10C12.8674 10 12.7778 10.0895 12.7778 10.2V17.8C12.7778 17.9105 12.8674 18 12.9778 18H15.0778C15.1883 18 15.2778 17.9105 15.2778 17.8V10.2C15.2778 10.0895 15.1883 10 15.0778 10H12.9778Z" fill="white"/>
                        <path d="M11.7778 0.965686V5.6C11.7778 5.82091 11.9569 6 12.1778 6H16.8121C17.1685 6 17.347 5.56914 17.095 5.31716L12.4607 0.682842C12.2087 0.430856 11.7778 0.609324 11.7778 0.965686Z" fill="white"/>
                    </svg>