<svg width="21" height="21" viewBox="0 0 21 21" fill="none" xmlns="http://www.w3.org/2000/svg">
                        <path fill-rule="evenodd" clip-rule="evenodd" d="M16.4828 9.41953L16.4835 9.42195C16.8676 10.8047 16.7779 12.2723 16.228 13.6006C15.6778 14.9297 14.6972 16.0463 13.436 16.7797C12.1748 17.5131 10.7024 17.823 9.24388 17.662C7.78536 17.501 6.42093 16.8779 5.35914 15.8881C4.29735 14.8982 3.59662 13.596 3.36403 12.1805C3.13145 10.765 3.37982 9.314 4.07117 8.04935C4.76253 6.7847 5.85883 5.77595 7.19253 5.17727C8.52624 4.57858 10.024 4.42291 11.4568 4.73403L11.6188 4.0222C11.357 3.96535 11.0932 3.92252 10.8286 3.89361C9.48435 3.74671 8.11894 3.95887 6.88076 4.51468C5.39886 5.17988 4.18074 6.30072 3.41257 7.70588C2.6444 9.11105 2.36844 10.7232 2.62686 12.296C2.88529 13.8688 3.66389 15.3157 4.84365 16.4156C6.02342 17.5154 7.53945 18.2077 9.16003 18.3866C10.7806 18.5655 12.4166 18.2212 13.8179 17.4063C15.2193 16.5914 16.3089 15.3507 16.9202 13.8739C17.431 12.64 17.5844 11.298 17.3716 9.99327C17.3297 9.73646 17.2736 9.4811 17.2033 9.2283L16.4828 9.41953Z" fill="white"/>
                        <path fill-rule="evenodd" clip-rule="evenodd" d="M9.96593 14.5251L8.19375 14.4123L6.49203 14.1004L4.82748 13.7643L3.17652 13.245L3.42176 12.5013L5.03165 13.0077L6.65036 13.3345L8.29388 13.6357L9.96306 13.7419L11.6426 13.6233L13.3128 13.3096L14.9115 12.9688L16.5967 12.4976L16.8169 13.2487L15.107 13.7268L13.4688 14.076L11.7474 14.3993L9.96593 14.5251Z" fill="white"/>
                        <path fill-rule="evenodd" clip-rule="evenodd" d="M10.2209 7.52617L11.5729 7.60992L11.5222 8.38966L10.2237 8.30921L8.49631 8.42803L6.77982 8.74202L5.1373 9.08302L3.40616 9.55437L3.19135 8.80177L4.94656 8.32387L6.62776 7.97483L8.39425 7.65181L10.2209 7.52617Z" fill="white"/>
                        <path fill-rule="evenodd" clip-rule="evenodd" d="M6.7146 11.0998L6.82991 9.33663L7.14904 7.64284L7.49299 5.98568L8.02451 4.342L8.78729 4.57731L8.26855 6.18148L7.9338 7.7946L7.62519 9.43257L7.51634 11.097L7.63794 12.7718L7.95935 14.4364L8.30844 16.0293L8.79098 17.7082L8.02082 17.9194L7.53149 16.2168L7.17407 14.5859L6.84329 12.8722L6.7146 11.0998Z" fill="white"/>
                        <path fill-rule="evenodd" clip-rule="evenodd" d="M13.5033 10.9695L13.3881 12.784L13.0693 14.5283L12.7256 16.2354L12.1944 17.9286L11.4296 17.6997L11.9487 16.0451L12.2837 14.3809L12.5926 12.6909L12.7016 10.9722L12.5783 9.22095L13.3763 9.16733L13.5033 10.9695Z" fill="white"/>
                        <path fill-rule="evenodd" clip-rule="evenodd" d="M17.1812 3.76099H11.8484V8.96967H17.1812V3.76099ZM11.3151 3.24012V9.49054H17.7145V3.24012H11.3151Z" fill="white"/>
                        <path fill-rule="evenodd" clip-rule="evenodd" d="M13.8232 1.52085L11.6901 3.60432L11.313 3.23601L13.4461 1.15254L13.8232 1.52085Z" fill="white"/>
                        <path fill-rule="evenodd" clip-rule="evenodd" d="M19.7846 1.84699L17.7145 3.86882L17.3374 3.50051L19.4075 1.47868L19.7846 1.84699Z" fill="white"/>
                        <path fill-rule="evenodd" clip-rule="evenodd" d="M19.8477 7.40706L17.7145 9.49054L17.3374 9.12223L19.4706 7.03875L19.8477 7.40706Z" fill="white"/>
                        <path fill-rule="evenodd" clip-rule="evenodd" d="M19.8227 1.66931H13.4482V1.14844H19.8227V1.66931Z" fill="white"/>
                        <path fill-rule="evenodd" clip-rule="evenodd" d="M19.3097 7.40089L19.3097 1.15047L19.843 1.15047L19.843 7.40089H19.3097Z" fill="white"/>
                        <path fill-rule="evenodd" clip-rule="evenodd" d="M13.4482 6.15969V3.42927H13.9815V6.15969H13.4482Z" fill="white"/>
                        <path fill-rule="evenodd" clip-rule="evenodd" d="M13.4463 3.23988L15.4231 1.30917L15.8002 1.67748L13.8234 3.60819L13.4463 3.23988Z" fill="white"/>
                        <path fill-rule="evenodd" clip-rule="evenodd" d="M15.4212 3.23988L17.3979 1.30917L17.775 1.67748L15.7983 3.60819L15.4212 3.23988Z" fill="white"/>
                        <path fill-rule="evenodd" clip-rule="evenodd" d="M15.3731 6.15969V3.42927H15.9064V6.15969H15.3731Z" fill="white"/>
                        <path fill-rule="evenodd" clip-rule="evenodd" d="M15.6364 6.15976H13.7232V5.63889L15.6364 5.63889V6.15976Z" fill="white"/>
                        <path fill-rule="evenodd" clip-rule="evenodd" d="M18.8027 10.1017L18.9866 10.0803L18.9864 10.0783L19.7807 9.98624C19.8382 10.4596 19.8603 10.9364 19.8467 11.4129L19.0471 11.3912L18.862 11.3857C18.8743 10.9568 18.8544 10.5276 18.8027 10.1017ZM18.7297 12.6645L19.5175 12.7995L19.517 12.8025L19.6996 12.8338C19.6575 13.068 19.6066 13.301 19.5469 13.5326C19.4873 13.7637 19.4192 13.992 19.3429 14.2171L18.5835 13.9716L18.5852 13.9666L18.4086 13.9095C18.4773 13.7069 18.5386 13.5014 18.5922 13.2934C18.646 13.085 18.6918 12.8752 18.7297 12.6645ZM17.9061 15.0942L18.6208 15.4452C18.6197 15.4473 18.6186 15.4494 18.6175 15.4515L18.7846 15.5335C18.5657 15.9587 18.3154 16.3674 18.0356 16.7563L17.3811 16.3071C17.3827 16.3049 17.3843 16.3026 17.3859 16.3004L17.232 16.1947C17.4838 15.8447 17.7091 15.4769 17.9061 15.0942ZM16.4003 17.187L16.9803 17.7251C16.9782 17.7272 16.9762 17.7293 16.9741 17.7314L17.1114 17.8588C16.9442 18.0309 16.7701 18.1971 16.5896 18.3573C16.4098 18.5168 16.2245 18.6693 16.0342 18.8147L15.5414 18.1993C15.5437 18.1975 15.546 18.1958 15.5483 18.194L15.4308 18.0473C15.602 17.9164 15.7688 17.7792 15.9306 17.6356C16.0931 17.4915 16.2498 17.3418 16.4003 17.187ZM14.3449 18.7573L14.7397 19.4369C14.7374 19.4381 14.7352 19.4393 14.733 19.4406L14.8277 19.6036C14.406 19.8373 13.9673 20.0401 13.5153 20.2103L13.2276 19.4813L13.2332 19.4792L13.1638 19.3033C13.5706 19.1502 13.9654 18.9677 14.3449 18.7573ZM11.913 19.6728L12.0871 20.4354L12.0834 20.4362L12.1256 20.6209C11.8897 20.6723 11.6514 20.7152 11.4112 20.7495C11.1712 20.7837 10.9306 20.8091 10.6899 20.8258L10.6334 20.0464L10.6346 20.0463L10.6209 19.8572C10.8376 19.8422 11.0541 19.8194 11.27 19.7886C11.4863 19.7577 11.7007 19.7191 11.913 19.6728ZM9.31598 19.8526C8.8818 19.8195 8.45067 19.7549 8.02612 19.6594L7.84648 20.4207L7.8503 20.4216L7.8068 20.6059C8.27852 20.7121 8.75756 20.7839 9.23997 20.8207L9.30226 20.0417L9.30087 20.0416L9.31598 19.8526ZM6.42191 20.1864L6.71478 19.4594C6.71288 19.4587 6.71098 19.4579 6.70908 19.4572L6.77972 19.2818C6.57765 19.2042 6.37806 19.1191 6.18139 19.0266C5.98408 18.9337 5.79081 18.834 5.60189 18.7276L5.20233 19.4045C5.20458 19.4057 5.20682 19.407 5.20906 19.4082L5.11321 19.5706C5.32312 19.6888 5.53787 19.7997 5.7571 19.9028C5.97563 20.0056 6.19739 20.1002 6.42191 20.1864ZM3.90962 18.7715L4.40698 18.1595C4.40469 18.1578 4.4024 18.156 4.40012 18.1542L4.51866 18.0084C4.17647 17.743 3.85456 17.4532 3.55556 17.1413L2.9716 17.6752C2.97365 17.6774 2.97569 17.6795 2.97774 17.6816L2.83951 17.808C3.17173 18.1546 3.52941 18.4767 3.90962 18.7715ZM1.92551 16.7018L2.58316 16.257C2.58156 16.2548 2.57995 16.2525 2.57835 16.2503L2.73296 16.1457C2.60889 15.9707 2.49107 15.7908 2.37983 15.6064C2.26819 15.4214 2.1638 15.2328 2.06676 15.0411L1.34966 15.3873C1.35072 15.3894 1.35178 15.3915 1.35284 15.3936L1.18529 15.4745C1.29311 15.6875 1.4091 15.8971 1.53315 16.1027C1.65675 16.3076 1.78765 16.5074 1.92551 16.7018ZM0.635246 14.152L1.39639 13.9116L1.39476 13.9067L1.57172 13.8508C1.43671 13.4429 1.33236 13.0258 1.25951 12.6028L0.470659 12.7324L0.47115 12.7353L0.288339 12.7653C0.369282 13.2353 0.485235 13.6988 0.635246 14.152ZM0.15158 11.3441L0.951336 11.3279L1.13642 11.3237C1.13187 11.11 1.13528 10.8956 1.14674 10.681C1.15819 10.4666 1.17763 10.2531 1.20491 10.0411L1.02109 10.0185L1.02137 10.0163L0.227681 9.91892C0.197371 10.1545 0.175769 10.3917 0.163041 10.63C0.150307 10.8684 0.146525 11.1066 0.15158 11.3441ZM0.514955 8.52003C0.645493 8.061 0.810157 7.61206 1.0076 7.17687L1.73894 7.4934C1.73803 7.4954 1.73713 7.49739 1.73623 7.49938L1.90684 7.57323C1.72914 7.96489 1.58094 8.36895 1.46346 8.78207L0.69271 8.57297L0.693957 8.56859L0.514955 8.52003ZM2.52603 6.4405L1.8499 6.02299C1.85135 6.02074 1.8528 6.0185 1.85426 6.01626L1.69559 5.91829C1.82555 5.71751 1.96327 5.52105 2.10859 5.32933C2.25334 5.13837 2.40481 4.9532 2.56262 4.77409L3.16894 5.28372C3.167 5.28592 3.16507 5.28813 3.16313 5.29033L3.30636 5.41072C3.16433 5.57192 3.028 5.73858 2.89773 5.91044C2.76695 6.08298 2.643 6.25981 2.52603 6.4405ZM4.23054 4.50572L3.70724 3.91479C3.70949 3.9129 3.71173 3.911 3.71398 3.90911L3.58949 3.76853C3.95682 3.45822 4.34685 3.17499 4.75639 2.92116L5.18499 3.58085C5.1827 3.58227 5.18041 3.58369 5.17812 3.58511L5.28075 3.74308C4.91217 3.97153 4.56113 4.22644 4.23054 4.50572ZM6.43458 3.13997L6.42317 3.11484L6.28776 3.16121L6.20561 2.93239L6.32224 2.89244L6.12038 2.44765L6.04131 2.47474L5.9715 2.28029C5.99376 2.27046 6.01607 2.2607 6.03842 2.25103C6.13816 2.20785 6.23871 2.16626 6.34005 2.12629C6.46357 2.07757 6.58825 2.03125 6.71403 1.98738L7.04261 2.90265C6.83654 2.97453 6.63375 3.05374 6.43458 3.13997ZM19.503 8.5841C19.4742 8.47997 19.4436 8.37622 19.4112 8.2729C19.3722 8.1485 19.3305 8.02471 19.2864 7.90162L18.3578 8.22548C18.4306 8.42829 18.4955 8.63319 18.5527 8.83973L18.5797 8.83262L18.6267 8.9613L18.8589 8.88033L18.8184 8.76956L19.2958 8.64345L19.3232 8.71839L19.5209 8.64944C19.515 8.62765 19.5091 8.60587 19.503 8.5841Z" fill="white"/>
                        <path fill-rule="evenodd" clip-rule="evenodd" d="M19.2864 7.90162L18.3578 8.22548C18.9427 9.85475 19.0242 11.6184 18.5922 13.2934C18.1602 14.9684 17.234 16.4795 15.9306 17.6356C14.6273 18.7917 13.0054 19.541 11.27 19.7886C9.5347 20.0361 7.76383 19.771 6.18139 19.0266C4.59894 18.2821 3.27599 17.0919 2.37983 15.6064C1.48367 14.121 1.05455 12.4069 1.14674 10.681C1.23892 8.95515 1.84827 7.29497 2.89773 5.91044C3.94719 4.52591 5.38961 3.47917 7.04261 2.90265L6.71403 1.98738C6.46193 2.0753 6.21425 2.17307 5.9715 2.28029C4.44563 2.95429 3.11461 4.00211 2.10859 5.32933C0.942525 6.8677 0.265469 8.71234 0.163041 10.63C0.0606126 12.5476 0.537412 14.4521 1.53315 16.1027C2.52888 17.7532 3.99882 19.0757 5.7571 19.9028C7.51537 20.7299 9.483 21.0246 11.4112 20.7495C13.3393 20.4744 15.1414 19.6419 16.5896 18.3573C18.0377 17.0727 19.0669 15.3937 19.5469 13.5326C19.9615 11.9252 19.9504 10.2442 19.5209 8.64944C19.4531 8.39781 19.3749 8.14833 19.2864 7.90162Z" fill="white"/>
                        <path d="M8.90229 1.76234L7.09453 3.79805L6.1934 1.25109L8.90229 1.76234Z" fill="white"/>
                        <path d="M16.4835 9.42195L16.363 9.45537L16.363 9.45541L16.4835 9.42195ZM16.4828 9.41953L16.4507 9.29871L16.3286 9.33114L16.3624 9.45295L16.4828 9.41953ZM16.228 13.6006L16.1125 13.5528L16.228 13.6006ZM13.436 16.7797L13.4988 16.8878L13.436 16.7797ZM9.24388 17.662L9.23017 17.7862L9.24388 17.662ZM3.36403 12.1805L3.48738 12.1602L3.36403 12.1805ZM4.07117 8.04935L4.18085 8.10931L4.07117 8.04935ZM7.19253 5.17727L7.14134 5.06323L7.19253 5.17727ZM11.4568 4.73403L11.4303 4.85619L11.5512 4.88245L11.5787 4.76178L11.4568 4.73403ZM11.6188 4.0222L11.7407 4.04994L11.7687 3.92684L11.6453 3.90004L11.6188 4.0222ZM10.8286 3.89361L10.8422 3.76935L10.8286 3.89361ZM6.88076 4.51468L6.93195 4.62871L6.88076 4.51468ZM3.41257 7.70588L3.52225 7.76584L3.41257 7.70588ZM2.62686 12.296L2.75021 12.2758L2.62686 12.296ZM13.8179 17.4063L13.8808 17.5143L13.8179 17.4063ZM16.9202 13.8739L17.0357 13.9218L16.9202 13.8739ZM17.3716 9.99327L17.495 9.97314V9.97314L17.3716 9.99327ZM17.2033 9.2283L17.3237 9.1948L17.2906 9.0758L17.1712 9.10749L17.2033 9.2283ZM9.96593 14.5251L9.95799 14.6498L9.96637 14.6504L9.97474 14.6498L9.96593 14.5251ZM8.19375 14.4123L8.17121 14.5353L8.17846 14.5366L8.18581 14.5371L8.19375 14.4123ZM6.49203 14.1004L6.46728 14.223L6.46949 14.2234L6.49203 14.1004ZM4.82748 13.7643L4.78976 13.8842L4.80274 13.8869L4.82748 13.7643ZM3.17652 13.245L3.05781 13.2058L3.01812 13.3262L3.13901 13.3642L3.17652 13.245ZM3.42176 12.5013L3.45927 12.3821L3.34166 12.3451L3.30305 12.4621L3.42176 12.5013ZM5.03165 13.0077L4.99393 13.1276L5.00692 13.1303L5.03165 13.0077ZM6.65036 13.3345L6.62562 13.4571L6.62783 13.4575L6.65036 13.3345ZM8.29388 13.6357L8.27134 13.7587L8.27859 13.76L8.28594 13.7605L8.29388 13.6357ZM9.96306 13.7419L9.95513 13.8667L9.9635 13.8672L9.97187 13.8666L9.96306 13.7419ZM11.6426 13.6233L11.6514 13.748L11.6586 13.7475L11.6657 13.7462L11.6426 13.6233ZM13.3128 13.3096L13.3359 13.4325L13.3389 13.4318L13.3128 13.3096ZM14.9115 12.9688L14.9376 13.0912L14.9451 13.0891L14.9115 12.9688ZM16.5967 12.4976L16.7167 12.4624L16.682 12.3439L16.5631 12.3772L16.5967 12.4976ZM16.8169 13.2487L16.8505 13.3691L16.9724 13.335L16.9368 13.2135L16.8169 13.2487ZM15.107 13.7268L15.1332 13.8493L15.1407 13.8471L15.107 13.7268ZM13.4688 14.076L13.4919 14.1989L13.4949 14.1983L13.4688 14.076ZM11.7474 14.3993L11.7562 14.5239L11.7634 14.5234L11.7705 14.5221L11.7474 14.3993ZM10.2209 7.52617L10.2287 7.4014L10.2205 7.4009L10.2124 7.40146L10.2209 7.52617ZM11.5729 7.60992L11.6976 7.61802L11.7057 7.49291L11.5806 7.48516L11.5729 7.60992ZM11.5222 8.38966L11.5145 8.51442L11.6389 8.52212L11.6469 8.39776L11.5222 8.38966ZM10.2237 8.30921L10.2315 8.18445L10.2233 8.18394L10.2151 8.1845L10.2237 8.30921ZM8.49631 8.42803L8.48768 8.30253L8.47382 8.30507L8.49631 8.42803ZM6.77982 8.74202L6.75732 8.61903L6.75441 8.61963L6.77982 8.74202ZM5.1373 9.08302L5.11185 8.9604L5.10446 8.96241L5.1373 9.08302ZM3.40616 9.55437L3.28596 9.58868L3.31985 9.70742L3.439 9.67498L3.40616 9.55437ZM3.19135 8.80177L3.15851 8.68116L3.03643 8.7144L3.07115 8.83607L3.19135 8.80177ZM4.94656 8.32387L4.9211 8.20125L4.91372 8.20326L4.94656 8.32387ZM6.62776 7.97483L6.60527 7.85184L6.60235 7.85244L6.62776 7.97483ZM8.39425 7.65181L8.38562 7.52631L8.37177 7.52885L8.39425 7.65181ZM6.7146 11.0998L6.58987 11.0916L6.5893 11.1002L6.58993 11.1088L6.7146 11.0998ZM6.82991 9.33663L6.70707 9.31349L6.70567 9.32093L6.70517 9.32848L6.82991 9.33663ZM7.14904 7.64284L7.02662 7.61743L7.0262 7.61969L7.14904 7.64284ZM7.49299 5.98568L7.37335 5.94699L7.37059 5.96027L7.49299 5.98568ZM8.02451 4.342L8.06136 4.22256L7.94352 4.1862L7.90557 4.30354L8.02451 4.342ZM8.78729 4.57731L8.90623 4.61577L8.94522 4.49522L8.82414 4.45787L8.78729 4.57731ZM8.26855 6.18148L8.14891 6.14279L8.14616 6.15608L8.26855 6.18148ZM7.9338 7.7946L7.81139 7.7692L7.81097 7.77146L7.9338 7.7946ZM7.62519 9.43257L7.50235 9.40943L7.50095 9.41686L7.50046 9.42441L7.62519 9.43257ZM7.51634 11.097L7.39161 11.0889L7.39104 11.0975L7.39167 11.1061L7.51634 11.097ZM7.63794 12.7718L7.51327 12.7809L7.5138 12.7883L7.51521 12.7955L7.63794 12.7718ZM7.95935 14.4364L7.83658 14.4601L7.83725 14.4631L7.95935 14.4364ZM8.30844 16.0293L8.18608 16.0561L8.1883 16.0638L8.30844 16.0293ZM8.79098 17.7082L8.82403 17.8288L8.94607 17.7953L8.91112 17.6737L8.79098 17.7082ZM8.02082 17.9194L7.90068 17.9539L7.93479 18.0726L8.05387 18.04L8.02082 17.9194ZM7.53149 16.2168L7.40913 16.2436L7.41135 16.2514L7.53149 16.2168ZM7.17407 14.5859L7.0513 14.6096L7.05197 14.6126L7.17407 14.5859ZM6.84329 12.8722L6.71862 12.8813L6.71915 12.8886L6.72055 12.8959L6.84329 12.8722ZM13.5033 10.9695L13.628 10.9774L13.6285 10.9691L13.6279 10.9607L13.5033 10.9695ZM13.3881 12.784L13.5111 12.8065L13.5124 12.7993L13.5129 12.792L13.3881 12.784ZM13.0693 14.5283L13.1919 14.553L13.1923 14.5508L13.0693 14.5283ZM12.7256 16.2354L12.8455 16.273L12.8481 16.2601L12.7256 16.2354ZM12.1944 17.9286L12.1586 18.0484L12.2768 18.0837L12.3137 17.966L12.1944 17.9286ZM11.4296 17.6997L11.3103 17.6623L11.2724 17.7832L11.3938 17.8195L11.4296 17.6997ZM11.9487 16.0451L12.0686 16.0827L12.0712 16.0697L11.9487 16.0451ZM12.2837 14.3809L12.4063 14.4056L12.4067 14.4034L12.2837 14.3809ZM12.5926 12.6909L12.7155 12.7134L12.7169 12.7062L12.7173 12.6988L12.5926 12.6909ZM12.7016 10.9722L12.8264 10.9801L12.8269 10.9718L12.8263 10.9634L12.7016 10.9722ZM12.5783 9.22095L12.5699 9.09623L12.4448 9.10464L12.4536 9.22973L12.5783 9.22095ZM13.3763 9.16733L13.501 9.15855L13.4923 9.03426L13.3679 9.04261L13.3763 9.16733ZM11.8484 3.76099V3.63599H11.7234V3.76099H11.8484ZM17.1812 3.76099H17.3062V3.63599H17.1812V3.76099ZM11.8484 8.96967H11.7234V9.09467H11.8484V8.96967ZM17.1812 8.96967V9.09467H17.3062V8.96967H17.1812ZM11.3151 3.24012V3.11512H11.1901V3.24012H11.3151ZM11.3151 9.49054H11.1901V9.61554H11.3151V9.49054ZM17.7145 9.49054V9.61554H17.7654L17.8019 9.57996L17.7145 9.49054ZM17.7145 3.24012H17.8395V3.11512H17.7145V3.24012ZM11.6901 3.60432L11.6027 3.69374L11.6901 3.77905L11.7774 3.69374L11.6901 3.60432ZM13.8232 1.52085L13.9106 1.61027L14.0021 1.52085L13.9106 1.43142L13.8232 1.52085ZM11.313 3.23601L11.2256 3.14659L11.1341 3.23601L11.2256 3.32543L11.313 3.23601ZM13.4461 1.15254L13.5335 1.06311L13.4461 0.977808L13.3588 1.06311L13.4461 1.15254ZM17.7145 3.86882L17.6272 3.95825L17.7145 4.04355L17.8019 3.95825L17.7145 3.86882ZM19.7846 1.84699L19.8719 1.93641L19.9635 1.84699L19.8719 1.75757L19.7846 1.84699ZM17.3374 3.50051L17.2501 3.41109L17.1585 3.50051L17.2501 3.58994L17.3374 3.50051ZM19.4075 1.47868L19.4948 1.38926L19.4075 1.30395L19.3201 1.38926L19.4075 1.47868ZM19.8477 7.40706L19.935 7.49649L20.0266 7.40706L19.935 7.31764L19.8477 7.40706ZM17.3374 9.12223L17.2501 9.0328L17.1585 9.12223L17.2501 9.21165L17.3374 9.12223ZM19.4706 7.03875L19.5579 6.94933L19.4706 6.86402L19.3832 6.94933L19.4706 7.03875ZM13.4482 1.66931H13.3232V1.79431H13.4482V1.66931ZM19.8227 1.66931V1.79431H19.9477V1.66931H19.8227ZM13.4482 1.14844V1.02344H13.3232V1.14844H13.4482ZM19.8227 1.14844H19.9477V1.02344H19.8227V1.14844ZM19.3097 1.15047V1.02547H19.1847V1.15047L19.3097 1.15047ZM19.3097 7.40089H19.1847V7.52589H19.3097V7.40089ZM19.843 1.15047L19.968 1.15047V1.02547H19.843V1.15047ZM19.843 7.40089V7.52589H19.968V7.40089H19.843ZM13.4482 3.42927V3.30427H13.3232V3.42927H13.4482ZM13.4482 6.15969H13.3232V6.28469H13.4482V6.15969ZM13.9815 3.42927H14.1065V3.30427H13.9815V3.42927ZM13.9815 6.15969V6.28469H14.1065V6.15969H13.9815ZM15.4231 1.30917L15.5104 1.21975L15.4231 1.13444L15.3357 1.21975L15.4231 1.30917ZM13.4463 3.23988L13.359 3.15045L13.2674 3.23988L13.359 3.3293L13.4463 3.23988ZM15.8002 1.67748L15.8875 1.76691L15.9791 1.67748L15.8875 1.58806L15.8002 1.67748ZM13.8234 3.60819L13.7361 3.69761L13.8234 3.78292L13.9108 3.69761L13.8234 3.60819ZM17.3979 1.30917L17.4852 1.21975L17.3979 1.13444L17.3106 1.21975L17.3979 1.30917ZM15.4212 3.23988L15.3338 3.15045L15.2423 3.23988L15.3338 3.3293L15.4212 3.23988ZM17.775 1.67748L17.8623 1.76691L17.9539 1.67748L17.8623 1.58806L17.775 1.67748ZM15.7983 3.60819L15.7109 3.69761L15.7983 3.78292L15.8856 3.69761L15.7983 3.60819ZM15.3731 3.42927V3.30427H15.2481V3.42927H15.3731ZM15.3731 6.15969H15.2481V6.28469H15.3731V6.15969ZM15.9064 3.42927H16.0314V3.30427H15.9064V3.42927ZM15.9064 6.15969V6.28469H16.0314V6.15969H15.9064ZM13.7232 6.15976H13.5982V6.28476L13.7232 6.28476V6.15976ZM15.6364 6.15976V6.28476L15.7614 6.28476V6.15976H15.6364ZM13.7232 5.63889V5.51389H13.5982V5.63889H13.7232ZM15.6364 5.63889H15.7614V5.51389H15.6364V5.63889ZM18.9866 10.0803L19.001 10.2045L19.1259 10.19L19.1107 10.0653L18.9866 10.0803ZM18.8027 10.1017L18.7883 9.97749L18.6634 9.99196L18.6786 10.1167L18.8027 10.1017ZM18.9864 10.0783L18.972 9.95411L18.8471 9.96858L18.8623 10.0934L18.9864 10.0783ZM19.7807 9.98624L19.9048 9.97117L19.8898 9.84776L19.7664 9.86207L19.7807 9.98624ZM19.8467 11.4129L19.8433 11.5379L19.9681 11.5413L19.9717 11.4165L19.8467 11.4129ZM19.0471 11.3912L19.0434 11.5161L19.0437 11.5162L19.0471 11.3912ZM18.862 11.3857L18.7371 11.3821L18.7335 11.5069L18.8583 11.5106L18.862 11.3857ZM18.7297 12.6645L18.7508 12.5413L18.6286 12.5203L18.6066 12.6424L18.7297 12.6645ZM19.5175 12.7995L19.6406 12.8216L19.6628 12.6976L19.5387 12.6763L19.5175 12.7995ZM19.517 12.8025L19.394 12.7804L19.3717 12.9044L19.4959 12.9257L19.517 12.8025ZM19.6996 12.8338L19.8226 12.8559L19.8449 12.7319L19.7207 12.7106L19.6996 12.8338ZM19.5469 13.5326L19.4259 13.5014L19.5469 13.5326ZM19.3429 14.2171L19.3045 14.3361L19.4217 14.374L19.4613 14.2573L19.3429 14.2171ZM18.5835 13.9716L18.4651 13.9315L18.4245 14.0515L18.5451 14.0905L18.5835 13.9716ZM18.5852 13.9666L18.7036 14.0067L18.7443 13.8866L18.6237 13.8476L18.5852 13.9666ZM18.4086 13.9095L18.2903 13.8693L18.2496 13.9894L18.3702 14.0284L18.4086 13.9095ZM18.5922 13.2934L18.4712 13.2622L18.5922 13.2934ZM17.9061 15.0942L17.9612 14.982L17.8511 14.928L17.795 15.037L17.9061 15.0942ZM18.6208 15.4452L18.7319 15.5024L18.7902 15.3891L18.6759 15.333L18.6208 15.4452ZM18.6175 15.4515L18.5064 15.3942L18.448 15.5075L18.5624 15.5637L18.6175 15.4515ZM18.7846 15.5335L18.8957 15.5907L18.954 15.4775L18.8397 15.4213L18.7846 15.5335ZM18.0356 16.7563L17.9649 16.8594L18.0657 16.9286L18.1371 16.8293L18.0356 16.7563ZM17.3811 16.3071L17.2796 16.2341L17.205 16.3379L17.3103 16.4102L17.3811 16.3071ZM17.3859 16.3004L17.4875 16.3732L17.5619 16.2695L17.4567 16.1973L17.3859 16.3004ZM17.232 16.1947L17.1306 16.1217L17.0559 16.2255L17.1613 16.2978L17.232 16.1947ZM16.4003 17.187L16.4853 17.0954L16.3958 17.0123L16.3107 17.0999L16.4003 17.187ZM16.9803 17.7251L17.0699 17.8122L17.1591 17.7205L17.0653 17.6334L16.9803 17.7251ZM16.9741 17.7314L16.8846 17.6442L16.7952 17.7359L16.8891 17.8231L16.9741 17.7314ZM17.1114 17.8588L17.2011 17.946L17.2903 17.8542L17.1965 17.7672L17.1114 17.8588ZM16.5896 18.3573L16.6725 18.4508L16.5896 18.3573ZM16.0342 18.8147L15.9366 18.8928L16.013 18.9882L16.1101 18.914L16.0342 18.8147ZM15.5414 18.1993L15.4655 18.0999L15.3639 18.1776L15.4438 18.2774L15.5414 18.1993ZM15.5483 18.194L15.6242 18.2933L15.7257 18.2156L15.6459 18.1159L15.5483 18.194ZM15.4308 18.0473L15.3549 17.9479L15.2533 18.0256L15.3332 18.1254L15.4308 18.0473ZM15.9306 17.6356L15.8477 17.5421L15.9306 17.6356ZM14.3449 18.7573L14.453 18.6945L14.3915 18.5886L14.2843 18.648L14.3449 18.7573ZM14.7397 19.4369L14.8002 19.5462L14.9118 19.4844L14.8478 19.3741L14.7397 19.4369ZM14.733 19.4406L14.6725 19.3312L14.5607 19.3929L14.6249 19.5034L14.733 19.4406ZM14.8277 19.6036L14.8883 19.713L14.9999 19.6511L14.9358 19.5408L14.8277 19.6036ZM13.5153 20.2103L13.3991 20.2562L13.4442 20.3706L13.5594 20.3273L13.5153 20.2103ZM13.2276 19.4813L13.1835 19.3643L13.0647 19.4091L13.1113 19.5272L13.2276 19.4813ZM13.2332 19.4792L13.2773 19.5962L13.3961 19.5514L13.3495 19.4333L13.2332 19.4792ZM13.1638 19.3033L13.1198 19.1863L13.0009 19.2311L13.0475 19.3492L13.1638 19.3033ZM11.913 19.6728L12.0349 19.645L12.0074 19.5243L11.8864 19.5507L11.913 19.6728ZM12.0871 20.4354L12.1137 20.5575L12.2371 20.5307L12.209 20.4076L12.0871 20.4354ZM12.0834 20.4362L12.0569 20.3141L11.9335 20.3409L11.9616 20.464L12.0834 20.4362ZM12.1256 20.6209L12.1522 20.743L12.2756 20.7161L12.2475 20.593L12.1256 20.6209ZM11.4112 20.7495L11.3935 20.6257L11.4112 20.7495ZM10.6899 20.8258L10.5652 20.8348L10.5743 20.9591L10.6985 20.9505L10.6899 20.8258ZM10.6334 20.0464L10.6248 19.9217L10.4996 19.9303L10.5087 20.0555L10.6334 20.0464ZM10.6346 20.0463L10.6432 20.171L10.7684 20.1625L10.7593 20.0373L10.6346 20.0463ZM10.6209 19.8572L10.6123 19.7325L10.4872 19.7412L10.4962 19.8663L10.6209 19.8572ZM11.27 19.7886L11.2524 19.6648L11.27 19.7886ZM8.02612 19.6594L8.05357 19.5374L7.93287 19.5102L7.90446 19.6306L8.02612 19.6594ZM9.31598 19.8526L9.44058 19.8626L9.45058 19.7375L9.32549 19.728L9.31598 19.8526ZM7.84648 20.4207L7.72482 20.392L7.6958 20.515L7.81909 20.5427L7.84648 20.4207ZM7.8503 20.4216L7.97196 20.4503L8.00097 20.3273L7.87768 20.2996L7.8503 20.4216ZM7.8068 20.6059L7.68514 20.5772L7.65614 20.7001L7.77935 20.7278L7.8068 20.6059ZM9.23997 20.8207L9.23047 20.9453L9.35465 20.9548L9.36458 20.8306L9.23997 20.8207ZM9.30226 20.0417L9.42686 20.0517L9.43685 19.9267L9.31187 19.9171L9.30226 20.0417ZM9.30087 20.0416L9.17626 20.0317L9.16627 20.1566L9.29126 20.1663L9.30087 20.0416ZM6.42191 20.1864L6.37707 20.3031L6.49189 20.3472L6.53786 20.2331L6.42191 20.1864ZM6.71478 19.4594L6.83073 19.5061L6.87821 19.3882L6.75957 19.3427L6.71478 19.4594ZM6.70908 19.4572L6.59314 19.4105L6.5457 19.5282L6.66418 19.5739L6.70908 19.4572ZM6.77972 19.2818L6.89567 19.3285L6.94313 19.2107L6.82456 19.1652L6.77972 19.2818ZM6.18139 19.0266L6.2346 18.9134H6.2346L6.18139 19.0266ZM5.60189 18.7276L5.66323 18.6187L5.55651 18.5586L5.49425 18.6641L5.60189 18.7276ZM5.20233 19.4045L5.09469 19.3409L5.02984 19.4508L5.14098 19.5134L5.20233 19.4045ZM5.20906 19.4082L5.31671 19.4718L5.38161 19.3618L5.27032 19.2993L5.20906 19.4082ZM5.11321 19.5706L5.00557 19.5071L4.94071 19.6169L5.05187 19.6795L5.11321 19.5706ZM5.7571 19.9028L5.81031 19.7897L5.7571 19.9028ZM3.90962 18.7715L3.83303 18.8702L3.92957 18.9451L4.00662 18.8503L3.90962 18.7715ZM4.40698 18.1595L4.50398 18.2384L4.58467 18.1391L4.48356 18.0607L4.40698 18.1595ZM4.40012 18.1542L4.30312 18.0754L4.2225 18.1746L4.32345 18.2529L4.40012 18.1542ZM4.51866 18.0084L4.61566 18.0872L4.69633 17.9879L4.59526 17.9096L4.51866 18.0084ZM3.55556 17.1413L3.6458 17.0548L3.56132 16.9666L3.47121 17.049L3.55556 17.1413ZM2.9716 17.6752L2.88725 17.583L2.79281 17.6693L2.88136 17.7617L2.9716 17.6752ZM2.97774 17.6816L3.06209 17.7739L3.15662 17.6875L3.0679 17.5951L2.97774 17.6816ZM2.83951 17.808L2.75516 17.7158L2.66072 17.8021L2.74927 17.8945L2.83951 17.808ZM1.92551 16.7018L1.82354 16.7741L1.89425 16.8739L1.99554 16.8054L1.92551 16.7018ZM2.58316 16.257L2.65319 16.3606L2.75904 16.289L2.68513 16.1847L2.58316 16.257ZM2.57835 16.2503L2.50832 16.1467L2.40258 16.2182L2.47631 16.3224L2.57835 16.2503ZM2.73296 16.1457L2.80299 16.2492L2.90884 16.1776L2.83493 16.0734L2.73296 16.1457ZM2.37983 15.6064L2.2728 15.671L2.37983 15.6064ZM2.06676 15.0411L2.17829 14.9846L2.12289 14.8751L2.01241 14.9285L2.06676 15.0411ZM1.34966 15.3873L1.29531 15.2747L1.18062 15.3301L1.23813 15.4437L1.34966 15.3873ZM1.35284 15.3936L1.40719 15.5061L1.52198 15.4507L1.46433 15.337L1.35284 15.3936ZM1.18529 15.4745L1.13094 15.3619L1.01625 15.4173L1.07376 15.5309L1.18529 15.4745ZM1.53315 16.1027L1.64018 16.0381L1.53315 16.1027ZM0.635246 14.152L0.516578 14.1912L0.55532 14.3083L0.672886 14.2712L0.635246 14.152ZM1.39639 13.9116L1.43403 14.0308L1.55485 13.9927L1.51506 13.8724L1.39639 13.9116ZM1.39476 13.9067L1.35712 13.7875L1.2363 13.8256L1.27608 13.9459L1.39476 13.9067ZM1.57172 13.8508L1.60936 13.97L1.73022 13.9318L1.69039 13.8115L1.57172 13.8508ZM1.25951 12.6028L1.38269 12.5816L1.36164 12.4594L1.23924 12.4795L1.25951 12.6028ZM0.470659 12.7324L0.450394 12.6091L0.326074 12.6295L0.347476 12.7536L0.470659 12.7324ZM0.47115 12.7353L0.491415 12.8586L0.615735 12.8382L0.594333 12.714L0.47115 12.7353ZM0.288339 12.7653L0.268073 12.6419L0.143772 12.6624L0.165152 12.7865L0.288339 12.7653ZM0.15158 11.3441L0.0266081 11.3468L0.0292648 11.4716L0.154117 11.4691L0.15158 11.3441ZM0.951336 11.3279L0.953873 11.4528L0.954126 11.4528L0.951336 11.3279ZM1.13642 11.3237L1.13921 11.4487L1.26405 11.4459L1.26139 11.3211L1.13642 11.3237ZM1.14674 10.681L1.02192 10.6744L1.14674 10.681ZM1.20491 10.0411L1.32889 10.057L1.34494 9.93232L1.22014 9.917L1.20491 10.0411ZM1.02109 10.0185L0.897109 10.0026L0.881081 10.1273L1.00586 10.1426L1.02109 10.0185ZM1.02137 10.0163L1.14535 10.0323L1.16138 9.90758L1.0366 9.89226L1.02137 10.0163ZM0.227681 9.91892L0.242909 9.79485L0.119561 9.77971L0.103703 9.90297L0.227681 9.91892ZM0.163041 10.63L0.0382187 10.6233L0.163041 10.63ZM0.514955 8.52003L0.394722 8.48584L0.360112 8.60754L0.482227 8.64067L0.514955 8.52003ZM1.0076 7.17687L1.05725 7.06215L0.944516 7.01336L0.893765 7.12523L1.0076 7.17687ZM1.73894 7.4934L1.85277 7.54505L1.90533 7.42921L1.78859 7.37868L1.73894 7.4934ZM1.73623 7.49938L1.62236 7.44783L1.56993 7.56361L1.68658 7.6141L1.73623 7.49938ZM1.90684 7.57323L2.02067 7.62487L2.07323 7.50903L1.95649 7.45851L1.90684 7.57323ZM1.46346 8.78207L1.43073 8.90271L1.54991 8.93504L1.58369 8.81626L1.46346 8.78207ZM0.69271 8.57297L0.572484 8.53876L0.537842 8.66048L0.659982 8.69361L0.69271 8.57297ZM0.693957 8.56859L0.814183 8.60281L0.848825 8.48109L0.726685 8.44795L0.693957 8.56859ZM2.52603 6.4405L2.46036 6.54686L2.56448 6.61115L2.63097 6.50843L2.52603 6.4405ZM1.8499 6.02299L1.74497 5.95506L1.67558 6.06225L1.78423 6.12934L1.8499 6.02299ZM1.85426 6.01626L1.95913 6.08428L2.02867 5.97705L1.91993 5.90991L1.85426 6.01626ZM1.69559 5.91829L1.59066 5.85036L1.52127 5.95755L1.62992 6.02464L1.69559 5.91829ZM2.10859 5.32933L2.20821 5.40484L2.10859 5.32933ZM2.56262 4.77409L2.64305 4.6784L2.54957 4.59982L2.46883 4.69145L2.56262 4.77409ZM3.16894 5.28372L3.26273 5.36636L3.34731 5.27036L3.24937 5.18803L3.16894 5.28372ZM3.16313 5.29033L3.06926 5.20779L2.98485 5.30377L3.0827 5.38602L3.16313 5.29033ZM3.30636 5.41072L3.40015 5.49336L3.48473 5.39736L3.38679 5.31503L3.30636 5.41072ZM2.89773 5.91044L2.99735 5.98595L2.89773 5.91044ZM4.23054 4.50572L4.13696 4.58859L4.21792 4.68002L4.31121 4.60121L4.23054 4.50572ZM3.70724 3.91479L3.62657 3.81931L3.52884 3.90188L3.61366 3.99766L3.70724 3.91479ZM3.71398 3.90911L3.79456 4.00467L3.89246 3.92211L3.80756 3.82624L3.71398 3.90911ZM3.58949 3.76853L3.50882 3.67304L3.41108 3.75561L3.49591 3.8514L3.58949 3.76853ZM4.75639 2.92116L4.86121 2.85305L4.79455 2.75045L4.69054 2.81491L4.75639 2.92116ZM5.18499 3.58085L5.25084 3.6871L5.35938 3.61983L5.28981 3.51275L5.18499 3.58085ZM5.17812 3.58511L5.11217 3.47892L5.00379 3.54623L5.0733 3.65321L5.17812 3.58511ZM5.28075 3.74308L5.3466 3.84933L5.45514 3.78206L5.38557 3.67498L5.28075 3.74308ZM6.42317 3.11484L6.537 3.06318L6.49008 2.95979L6.38267 2.99658L6.42317 3.11484ZM6.43458 3.13997L6.32075 3.19163L6.37151 3.30349L6.48424 3.25468L6.43458 3.13997ZM6.28776 3.16121L6.17011 3.20345L6.21173 3.31938L6.32826 3.27947L6.28776 3.16121ZM6.20561 2.93239L6.1651 2.81413L6.04509 2.85523L6.08796 2.97462L6.20561 2.93239ZM6.32224 2.89244L6.36274 3.0107L6.49294 2.96611L6.43607 2.84079L6.32224 2.89244ZM6.12038 2.44765L6.23421 2.396L6.18729 2.29261L6.07988 2.3294L6.12038 2.44765ZM6.04131 2.47474L5.92366 2.51697L5.96528 2.6329L6.08181 2.59299L6.04131 2.47474ZM6.03842 2.25103L5.98875 2.13632L5.98875 2.13632L6.03842 2.25103ZM6.34005 2.12629L6.38592 2.24257L6.34005 2.12629ZM6.71403 1.98738L6.83167 1.94515L6.78982 1.82856L6.67286 1.86936L6.71403 1.98738ZM7.04261 2.90265L7.08377 3.02068L7.20288 2.97914L7.16026 2.86042L7.04261 2.90265ZM19.4112 8.2729L19.2919 8.3103L19.2919 8.31031L19.4112 8.2729ZM19.503 8.5841L19.6235 8.55075L19.6235 8.55075L19.503 8.5841ZM19.2864 7.90162L19.404 7.85938L19.3621 7.7428L19.2452 7.78359L19.2864 7.90162ZM18.3578 8.22548L18.3166 8.10745L18.1975 8.14899L18.2401 8.26772L18.3578 8.22548ZM18.5527 8.83973L18.4323 8.87309L18.4652 8.99214L18.5847 8.96059L18.5527 8.83973ZM18.5797 8.83262L18.6971 8.78969L18.6579 8.68265L18.5478 8.71176L18.5797 8.83262ZM18.6267 8.9613L18.5093 9.00422L18.5516 9.11988L18.6679 9.07932L18.6267 8.9613ZM18.8589 8.88033L18.9 8.99835L19.0199 8.95657L18.9763 8.83741L18.8589 8.88033ZM18.8184 8.76956L18.7865 8.6487L18.6539 8.68372L18.701 8.81248L18.8184 8.76956ZM19.2958 8.64345L19.4132 8.60052L19.3741 8.49348L19.2639 8.52259L19.2958 8.64345ZM19.3232 8.71839L19.2058 8.76131L19.2481 8.87697L19.3644 8.83641L19.3232 8.71839ZM19.5209 8.64944L19.6416 8.61694V8.61694L19.5209 8.64944ZM8.90229 1.76234L8.99576 1.84534L9.14221 1.68042L8.92547 1.63951L8.90229 1.76234ZM7.09453 3.79805L6.97669 3.83975L7.04734 4.03944L7.188 3.88105L7.09453 3.79805ZM6.1934 1.25109L6.21659 1.12826L6.0031 1.08797L6.07556 1.29278L6.1934 1.25109ZM16.6039 9.38853L16.6033 9.38611L16.3624 9.45295L16.363 9.45537L16.6039 9.38853ZM16.3435 13.6484C16.9041 12.2944 16.9955 10.7982 16.6039 9.38849L16.363 9.45541C16.7397 10.8112 16.6518 12.2502 16.1125 13.5528L16.3435 13.6484ZM13.4988 16.8878C14.7834 16.1408 15.7827 15.0032 16.3435 13.6484L16.1125 13.5528C15.573 14.8562 14.6111 15.9518 13.3732 16.6716L13.4988 16.8878ZM9.23017 17.7862C10.7151 17.9501 12.2144 17.6347 13.4988 16.8878L13.3732 16.6716C12.1352 17.3915 10.6897 17.6958 9.2576 17.5377L9.23017 17.7862ZM5.2739 15.9795C6.35561 16.9879 7.7452 17.6223 9.23017 17.7862L9.2576 17.5377C7.82551 17.3796 6.48625 16.7679 5.44438 15.7966L5.2739 15.9795ZM3.24069 12.2008C3.47781 13.6439 4.19215 14.971 5.2739 15.9795L5.44438 15.7966C4.40255 14.8254 3.71542 13.5481 3.48738 12.1602L3.24069 12.2008ZM3.96149 7.98939C3.25683 9.27838 3.00356 10.7576 3.24069 12.2008L3.48738 12.1602C3.25934 10.7724 3.50281 9.34962 4.18085 8.10931L3.96149 7.98939ZM7.14134 5.06323C5.78316 5.6729 4.66612 6.70046 3.96149 7.98939L4.18085 8.10931C4.85893 6.86895 5.93451 5.87899 7.24372 5.2913L7.14134 5.06323ZM11.4833 4.61188C10.0245 4.2951 8.4995 4.45357 7.14134 5.06323L7.24372 5.2913C8.55298 4.7036 10.0235 4.55071 11.4303 4.85619L11.4833 4.61188ZM11.5787 4.76178L11.7407 4.04994L11.4969 3.99446L11.3349 4.70629L11.5787 4.76178ZM10.815 4.01787C11.0753 4.04631 11.3348 4.08843 11.5923 4.14435L11.6453 3.90004C11.3792 3.84226 11.1111 3.79873 10.8422 3.76935L10.815 4.01787ZM6.93195 4.62871C8.14968 4.08209 9.49272 3.87337 10.815 4.01787L10.8422 3.76935C9.47598 3.62005 8.0882 3.83565 6.82957 4.40064L6.93195 4.62871ZM3.52225 7.76584C4.27715 6.38497 5.47454 5.28293 6.93195 4.62871L6.82957 4.40064C5.32319 5.07684 4.08434 6.21647 3.30289 7.64593L3.52225 7.76584ZM2.75021 12.2758C2.49633 10.7306 2.76739 9.14667 3.52225 7.76584L3.30289 7.64593C2.52141 9.07543 2.24055 10.7158 2.50352 12.3163L2.75021 12.2758ZM4.92889 16.3241C3.76909 15.2429 3.0041 13.8209 2.75021 12.2758L2.50352 12.3163C2.76648 13.9167 3.55869 15.3886 4.75841 16.507L4.92889 16.3241ZM9.17375 18.2623C7.5796 18.0863 6.08874 17.4054 4.92889 16.3241L4.75841 16.507C5.95809 17.6254 7.49929 18.329 9.14631 18.5108L9.17375 18.2623ZM13.7551 17.2982C12.377 18.0996 10.7679 18.4383 9.17375 18.2623L9.14631 18.5108C10.7933 18.6926 12.4562 18.3428 13.8808 17.5143L13.7551 17.2982ZM16.8047 13.8261C16.204 15.2772 15.1331 16.4969 13.7551 17.2982L13.8808 17.5143C15.3054 16.6859 16.4137 15.4242 17.0357 13.9218L16.8047 13.8261ZM17.2482 10.0134C17.4573 11.2952 17.3066 12.6137 16.8047 13.8261L17.0357 13.9218C17.5554 12.6663 17.7115 11.3008 17.495 9.97314L17.2482 10.0134ZM17.0829 9.26181C17.152 9.5102 17.2071 9.76109 17.2482 10.0134L17.495 9.97314C17.4523 9.71184 17.3953 9.45201 17.3237 9.1948L17.0829 9.26181ZM17.1712 9.10749L16.4507 9.29871L16.5149 9.54035L17.2353 9.34912L17.1712 9.10749ZM3.30305 12.4621L3.05781 13.2058L3.29523 13.2841L3.54047 12.5404L3.30305 12.4621ZM5.06916 12.8885L3.45927 12.3821L3.38425 12.6205L4.99414 13.127L5.06916 12.8885ZM6.6751 13.212L5.05639 12.8852L5.00692 13.1303L6.62563 13.457L6.6751 13.212ZM8.31642 13.5128L6.6729 13.2116L6.62783 13.4575L8.27134 13.7587L8.31642 13.5128ZM9.971 13.6172L8.30182 13.511L8.28594 13.7605L9.95513 13.8667L9.971 13.6172ZM11.6338 13.4986L9.95426 13.6173L9.97187 13.8666L11.6514 13.748L11.6338 13.4986ZM13.2897 13.1867L11.6196 13.5005L11.6657 13.7462L13.3359 13.4324L13.2897 13.1867ZM14.8854 12.8465L13.2867 13.1873L13.3389 13.4318L14.9375 13.091L14.8854 12.8465ZM16.5631 12.3772L14.8778 12.8484L14.9451 13.0891L16.6304 12.618L16.5631 12.3772ZM16.9368 13.2135L16.7167 12.4624L16.4768 12.5327L16.6969 13.2839L16.9368 13.2135ZM8.18581 14.5371L9.95799 14.6498L9.97387 14.4003L8.20169 14.2876L8.18581 14.5371ZM6.46949 14.2234L8.17121 14.5353L8.21629 14.2894L6.51456 13.9775L6.46949 14.2234ZM4.80274 13.8869L6.46729 14.223L6.51677 13.9779L4.85222 13.6418L4.80274 13.8869ZM3.13901 13.3642L4.78997 13.8836L4.86499 13.6451L3.21403 13.1257L3.13901 13.3642ZM15.1407 13.8471L16.8505 13.3691L16.7832 13.1283L15.0734 13.6064L15.1407 13.8471ZM13.4949 14.1983L15.1331 13.849L15.081 13.6045L13.4427 13.9538L13.4949 14.1983ZM11.7705 14.5221L13.4919 14.1989L13.4457 13.9532L11.7243 14.2764L11.7705 14.5221ZM9.97474 14.6498L11.7562 14.5239L11.7386 14.2746L9.95712 14.4004L9.97474 14.6498ZM11.6469 8.39776L11.6976 7.61802L11.4481 7.60182L11.3975 8.38156L11.6469 8.39776ZM8.50489 8.55273L10.2323 8.43392L10.2151 8.1845L8.48773 8.30332L8.50489 8.55273ZM6.80231 8.86498L8.51881 8.55099L8.47382 8.30507L6.75733 8.61906L6.80231 8.86498ZM5.16271 9.20541L6.80523 8.86441L6.75441 8.61963L5.11189 8.96063L5.16271 9.20541ZM3.439 9.67498L5.17014 9.20363L5.10446 8.96241L3.37332 9.43376L3.439 9.67498ZM3.07115 8.83607L3.28596 9.58868L3.52636 9.52007L3.31155 8.76746L3.07115 8.83607ZM11.5806 7.48516L10.2287 7.4014L10.2132 7.65093L11.5651 7.73468L11.5806 7.48516ZM10.216 8.43397L11.5145 8.51442L11.5299 8.2649L10.2315 8.18445L10.216 8.43397ZM4.91372 8.20326L3.15851 8.68116L3.22419 8.92238L4.9794 8.44448L4.91372 8.20326ZM6.60235 7.85244L4.92115 8.20148L4.97197 8.44626L6.65317 8.09722L6.60235 7.85244ZM8.37177 7.52885L6.60528 7.85187L6.65025 8.09779L8.41673 7.77477L8.37177 7.52885ZM10.2124 7.40146L8.38567 7.5271L8.40283 7.77651L10.2295 7.65087L10.2124 7.40146ZM8.82414 4.45787L8.06136 4.22256L7.98766 4.46145L8.75045 4.69676L8.82414 4.45787ZM8.38748 6.21994L8.90623 4.61577L8.66836 4.53885L8.14961 6.14302L8.38748 6.21994ZM8.0562 7.82L8.39094 6.20688L8.14616 6.15608L7.81141 7.7692L8.0562 7.82ZM7.74803 9.45572L8.05664 7.81775L7.81097 7.77146L7.50235 9.40943L7.74803 9.45572ZM7.64107 11.1052L7.74993 9.44073L7.50046 9.42441L7.39161 11.0889L7.64107 11.1052ZM7.76261 12.7628L7.64101 11.088L7.39167 11.1061L7.51327 12.7809L7.76261 12.7628ZM8.08208 14.4127L7.76067 12.7481L7.51521 12.7955L7.83662 14.4601L8.08208 14.4127ZM8.43054 16.0025L8.08145 14.4096L7.83725 14.4631L8.18633 16.0561L8.43054 16.0025ZM8.91112 17.6737L8.42857 15.9948L8.1883 16.0638L8.67085 17.7428L8.91112 17.6737ZM8.05387 18.04L8.82403 17.8288L8.75793 17.5877L7.98777 17.7989L8.05387 18.04ZM6.70517 9.32848L6.58987 11.0916L6.83933 11.1079L6.95464 9.34479L6.70517 9.32848ZM7.0262 7.61969L6.70707 9.31349L6.95275 9.35978L7.27187 7.66598L7.0262 7.61969ZM7.37059 5.96027L7.02664 7.61744L7.27143 7.66824L7.61538 6.01108L7.37059 5.96027ZM7.90557 4.30354L7.37405 5.94721L7.61192 6.02414L8.14344 4.38046L7.90557 4.30354ZM7.41135 16.2514L7.90068 17.9539L8.14096 17.8849L7.65162 16.1823L7.41135 16.2514ZM7.05197 14.6126L7.40938 16.2436L7.65359 16.1901L7.29617 14.5591L7.05197 14.6126ZM6.72055 12.8959L7.05134 14.6096L7.2968 14.5622L6.96602 12.8485L6.72055 12.8959ZM6.58993 11.1088L6.71862 12.8813L6.96796 12.8632L6.83927 11.0907L6.58993 11.1088ZM11.3938 17.8195L12.1586 18.0484L12.2303 17.8089L11.4654 17.58L11.3938 17.8195ZM11.8294 16.0076L11.3103 17.6623L11.5489 17.7372L12.0679 16.0825L11.8294 16.0076ZM12.1611 14.3562L11.8261 16.0204L12.0712 16.0697L12.4062 14.4056L12.1611 14.3562ZM12.4696 12.6685L12.1607 14.3584L12.4067 14.4034L12.7155 12.7134L12.4696 12.6685ZM12.5769 10.9643L12.4678 12.683L12.7173 12.6988L12.8264 10.9801L12.5769 10.9643ZM12.4536 9.22973L12.5769 10.981L12.8263 10.9634L12.703 9.21217L12.4536 9.22973ZM13.3679 9.04261L12.5699 9.09623L12.5867 9.34567L13.3847 9.29205L13.3679 9.04261ZM13.5129 12.792L13.628 10.9774L13.3785 10.9616L13.2634 12.7761L13.5129 12.792ZM13.1923 14.5508L13.5111 12.8065L13.2652 12.7616L12.9464 14.5058L13.1923 14.5508ZM12.8481 16.2601L13.1919 14.553L12.9468 14.5036L12.6031 16.2107L12.8481 16.2601ZM12.3137 17.966L12.8449 16.2728L12.6063 16.198L12.0752 17.8912L12.3137 17.966ZM13.6279 10.9607L13.501 9.15855L13.2516 9.17611L13.3786 10.9783L13.6279 10.9607ZM11.8484 3.88599H17.1812V3.63599H11.8484V3.88599ZM11.9734 8.96967V3.76099H11.7234V8.96967H11.9734ZM17.1812 8.84467H11.8484V9.09467H17.1812V8.84467ZM17.0562 3.76099V8.96967H17.3062V3.76099H17.0562ZM11.3151 3.36512H17.7145V3.11512H11.3151V3.36512ZM11.4401 9.49054V3.24012H11.1901V9.49054H11.4401ZM17.7145 9.36554H11.3151V9.61554H17.7145V9.36554ZM17.5895 3.24012V9.49054H17.8395V3.24012H17.5895ZM11.7774 3.69374L13.9106 1.61027L13.7359 1.43142L11.6027 3.5149L11.7774 3.69374ZM11.2256 3.32543L11.6027 3.69374L11.7774 3.5149L11.4003 3.14659L11.2256 3.32543ZM13.3588 1.06311L11.2256 3.14659L11.4003 3.32543L13.5335 1.24196L13.3588 1.06311ZM13.9106 1.43142L13.5335 1.06311L13.3588 1.24196L13.7359 1.61027L13.9106 1.43142ZM17.8019 3.95825L19.8719 1.93641L19.6972 1.75757L17.6272 3.7794L17.8019 3.95825ZM17.2501 3.58994L17.6272 3.95825L17.8019 3.7794L17.4248 3.41109L17.2501 3.58994ZM19.3201 1.38926L17.2501 3.41109L17.4248 3.58994L19.4948 1.5681L19.3201 1.38926ZM19.8719 1.75757L19.4948 1.38926L19.3201 1.5681L19.6972 1.93641L19.8719 1.75757ZM17.8019 9.57996L19.935 7.49649L19.7603 7.31764L17.6272 9.40111L17.8019 9.57996ZM17.2501 9.21165L17.6272 9.57996L17.8019 9.40111L17.4248 9.0328L17.2501 9.21165ZM19.3832 6.94933L17.2501 9.0328L17.4248 9.21165L19.5579 7.12818L19.3832 6.94933ZM19.935 7.31764L19.5579 6.94933L19.3832 7.12818L19.7603 7.49649L19.935 7.31764ZM13.4482 1.79431H19.8227V1.54431H13.4482V1.79431ZM13.3232 1.14844V1.66931H13.5732V1.14844H13.3232ZM19.8227 1.02344H13.4482V1.27344H19.8227V1.02344ZM19.9477 1.66931V1.14844H19.6977V1.66931H19.9477ZM19.1847 1.15047L19.1847 7.40089H19.4347L19.4347 1.15047L19.1847 1.15047ZM19.843 1.02547L19.3097 1.02547V1.27547H19.843V1.02547ZM19.968 7.40089L19.968 1.15047L19.718 1.15047L19.718 7.40089H19.968ZM19.3097 7.52589H19.843V7.27589H19.3097V7.52589ZM13.3232 3.42927V6.15969H13.5732V3.42927H13.3232ZM13.9815 3.30427H13.4482V3.55427H13.9815V3.30427ZM14.1065 6.15969V3.42927H13.8565V6.15969H14.1065ZM13.4482 6.28469H13.9815V6.03469H13.4482V6.28469ZM15.3357 1.21975L13.359 3.15045L13.5337 3.3293L15.5104 1.3986L15.3357 1.21975ZM15.8875 1.58806L15.5104 1.21975L15.3357 1.3986L15.7128 1.76691L15.8875 1.58806ZM13.9108 3.69761L15.8875 1.76691L15.7128 1.58806L13.7361 3.51876L13.9108 3.69761ZM13.359 3.3293L13.7361 3.69761L13.9108 3.51876L13.5337 3.15045L13.359 3.3293ZM17.3106 1.21975L15.3338 3.15045L15.5085 3.3293L17.4852 1.3986L17.3106 1.21975ZM17.8623 1.58806L17.4852 1.21975L17.3106 1.3986L17.6876 1.76691L17.8623 1.58806ZM15.8856 3.69761L17.8623 1.76691L17.6876 1.58806L15.7109 3.51876L15.8856 3.69761ZM15.3338 3.3293L15.7109 3.69761L15.8856 3.51876L15.5085 3.15045L15.3338 3.3293ZM15.2481 3.42927V6.15969H15.4981V3.42927H15.2481ZM15.9064 3.30427H15.3731V3.55427H15.9064V3.30427ZM16.0314 6.15969V3.42927H15.7814V6.15969H16.0314ZM15.3731 6.28469H15.9064V6.03469H15.3731V6.28469ZM13.7232 6.28476H15.6364V6.03476H13.7232V6.28476ZM13.5982 5.63889V6.15976H13.8482V5.63889H13.5982ZM15.6364 5.51389L13.7232 5.51389V5.76389L15.6364 5.76389V5.51389ZM15.7614 6.15976V5.63889H15.5114V6.15976H15.7614ZM18.9722 9.95617L18.7883 9.97749L18.8171 10.2258L19.001 10.2045L18.9722 9.95617ZM18.8623 10.0934L18.8625 10.0954L19.1107 10.0653L19.1105 10.0632L18.8623 10.0934ZM19.6567 10.0013C19.7134 10.4684 19.7352 10.9391 19.7218 11.4094L19.9717 11.4165C19.9854 10.9337 19.9631 10.4507 19.9048 9.97117L19.6567 10.0013ZM18.8583 11.5106L19.0434 11.5161L19.0508 11.2663L18.8658 11.2607L18.8583 11.5106ZM18.987 11.3892C18.9994 10.9541 18.9792 10.5187 18.9268 10.0866L18.6786 10.1167C18.7296 10.5365 18.7491 10.9595 18.7371 11.3821L18.987 11.3892ZM19.64 12.8246L19.6406 12.8216L19.3945 12.7775L19.394 12.7804L19.64 12.8246ZM19.7207 12.7106L19.5381 12.6793L19.4959 12.9257L19.6785 12.957L19.7207 12.7106ZM19.5766 12.8117C19.5351 13.0428 19.4848 13.2728 19.4259 13.5014L19.668 13.5638C19.7285 13.3292 19.78 13.0931 19.8226 12.8559L19.5766 12.8117ZM19.4259 13.5014C19.367 13.7295 19.2998 13.9548 19.2245 14.177L19.4613 14.2573C19.5386 14.0292 19.6076 13.798 19.668 13.5638L19.4259 13.5014ZM18.4668 13.9265L18.4651 13.9315L18.7019 14.0117L18.7036 14.0067L18.4668 13.9265ZM18.3702 14.0284L18.5468 14.0855L18.6237 13.8476L18.4471 13.7905L18.3702 14.0284ZM18.527 13.9496C18.5967 13.7441 18.6588 13.5356 18.7133 13.3246L18.4712 13.2622C18.4183 13.4672 18.3579 13.6697 18.2903 13.8693L18.527 13.9496ZM18.7133 13.3246C18.7678 13.1132 18.8143 12.9004 18.8527 12.6866L18.6066 12.6424C18.5693 12.85 18.5242 13.0568 18.4712 13.2622L18.7133 13.3246ZM18.7286 15.5088C18.7297 15.5067 18.7308 15.5046 18.7319 15.5024L18.5096 15.388C18.5086 15.39 18.5075 15.3921 18.5064 15.3942L18.7286 15.5088ZM18.8397 15.4213L18.6726 15.3393L18.5624 15.5637L18.7295 15.6457L18.8397 15.4213ZM18.6734 15.4763C18.4574 15.896 18.2103 16.2994 17.9341 16.6833L18.1371 16.8293C18.4204 16.4354 18.674 16.0214 18.8957 15.5907L18.6734 15.4763ZM17.2844 16.2275C17.2828 16.2297 17.2812 16.2319 17.2796 16.2341L17.4825 16.3801C17.4842 16.3778 17.4858 16.3755 17.4875 16.3732L17.2844 16.2275ZM17.1613 16.2978L17.3152 16.4034L17.4567 16.1973L17.3028 16.0917L17.1613 16.2978ZM17.3335 16.2677C17.5889 15.9127 17.8174 15.5396 18.0172 15.1514L17.795 15.037C17.6008 15.4142 17.3787 15.7767 17.1306 16.1217L17.3335 16.2677ZM17.0636 17.8187C17.0657 17.8165 17.0678 17.8144 17.0699 17.8122L16.8907 17.6379C16.8887 17.64 16.8866 17.6421 16.8846 17.6442L17.0636 17.8187ZM17.1965 17.7672L17.0591 17.6398L16.8891 17.8231L17.0264 17.9505L17.1965 17.7672ZM17.0218 17.7717C16.8567 17.9415 16.6849 18.1057 16.5066 18.2638L16.6725 18.4508C16.8554 18.2886 17.0316 18.1202 17.2011 17.946L17.0218 17.7717ZM16.5066 18.2638C16.3291 18.4213 16.1462 18.5719 15.9583 18.7154L16.1101 18.914C16.3028 18.7668 16.4904 18.6123 16.6725 18.4508L16.5066 18.2638ZM15.4723 18.0947C15.4701 18.0965 15.4678 18.0982 15.4655 18.0999L15.6173 18.2986C15.6196 18.2968 15.6219 18.2951 15.6242 18.2933L15.4723 18.0947ZM15.3332 18.1254L15.4507 18.2721L15.6459 18.1159L15.5284 17.9691L15.3332 18.1254ZM15.5067 18.1466C15.6803 18.0139 15.8495 17.8747 16.0136 17.7291L15.8477 17.5421C15.6881 17.6836 15.5237 17.819 15.3549 17.9479L15.5067 18.1466ZM16.0136 17.7291C16.1784 17.5829 16.3372 17.4312 16.4899 17.2741L16.3107 17.0999C16.1623 17.2525 16.0079 17.4 15.8477 17.5421L16.0136 17.7291ZM14.7934 19.55C14.7957 19.5487 14.798 19.5474 14.8002 19.5462L14.6791 19.3275C14.6769 19.3287 14.6747 19.33 14.6725 19.3312L14.7934 19.55ZM14.9358 19.5408L14.8411 19.3778L14.6249 19.5034L14.7196 19.6664L14.9358 19.5408ZM14.7671 19.4943C14.3507 19.7251 13.9176 19.9253 13.4713 20.0933L13.5594 20.3273C14.017 20.155 14.4612 19.9496 14.8883 19.713L14.7671 19.4943ZM13.1891 19.3622L13.1835 19.3643L13.2717 19.5983L13.2773 19.5962L13.1891 19.3622ZM13.0475 19.3492L13.117 19.5251L13.3495 19.4333L13.2801 19.2574L13.0475 19.3492ZM13.2079 19.4203C13.6203 19.265 14.0206 19.0799 14.4055 18.8666L14.2843 18.648C13.9101 18.8554 13.5208 19.0353 13.1198 19.1863L13.2079 19.4203ZM12.11 20.5584L12.1137 20.5575L12.0606 20.3132L12.0569 20.3141L12.11 20.5584ZM12.2475 20.593L12.2053 20.4084L11.9616 20.464L12.0037 20.6487L12.2475 20.593ZM12.099 20.4987C11.8661 20.5495 11.6308 20.5919 11.3935 20.6257L11.4288 20.8732C11.6721 20.8385 11.9134 20.795 12.1522 20.743L12.099 20.4987ZM11.3935 20.6257C11.1565 20.6595 10.919 20.6846 10.6813 20.7011L10.6985 20.9505C10.9423 20.9336 11.1859 20.9079 11.4288 20.8732L11.3935 20.6257ZM10.6261 19.9216L10.6248 19.9217L10.6419 20.1711L10.6432 20.171L10.6261 19.9216ZM10.4962 19.8663L10.51 20.0554L10.7593 20.0373L10.7456 19.8482L10.4962 19.8663ZM10.6295 19.9819C10.8492 19.9667 11.0687 19.9435 11.2877 19.9123L11.2524 19.6648C11.0394 19.6952 10.8259 19.7177 10.6123 19.7325L10.6295 19.9819ZM11.2877 19.9123C11.5069 19.881 11.7244 19.8418 11.9396 19.795L11.8864 19.5507C11.6771 19.5963 11.4656 19.6344 11.2524 19.6648L11.2877 19.9123ZM7.99867 19.7813C8.42913 19.8782 8.86626 19.9437 9.30647 19.9773L9.32549 19.728C8.89734 19.6953 8.47221 19.6316 8.05357 19.5374L7.99867 19.7813ZM7.81909 20.5427L7.82291 20.5435L7.87768 20.2996L7.87386 20.2987L7.81909 20.5427ZM7.72864 20.3928L7.68514 20.5772L7.92846 20.6346L7.97196 20.4503L7.72864 20.3928ZM9.24948 20.696C8.7731 20.6597 8.30006 20.5888 7.83425 20.4839L7.77935 20.7278C8.25698 20.8354 8.74201 20.908 9.23047 20.9453L9.24948 20.696ZM9.31187 19.9171L9.31047 19.917L9.29126 20.1663L9.29265 20.1664L9.31187 19.9171ZM9.42547 20.0516L9.44058 19.8626L9.19138 19.8427L9.17626 20.0317L9.42547 20.0516ZM6.75957 19.3427C6.75769 19.342 6.75583 19.3413 6.75399 19.3405L6.66418 19.5739C6.66613 19.5746 6.66807 19.5754 6.66999 19.5761L6.75957 19.3427ZM6.82503 19.5039L6.89567 19.3285L6.66377 19.2351L6.59314 19.4105L6.82503 19.5039ZM6.12818 19.1397C6.32761 19.2335 6.52999 19.3198 6.73488 19.3985L6.82456 19.1652C6.62531 19.0886 6.42852 19.0047 6.2346 18.9134L6.12818 19.1397ZM5.54056 18.8365C5.73212 18.9444 5.92811 19.0455 6.12818 19.1397L6.2346 18.9134C6.04005 18.8219 5.84949 18.7236 5.66323 18.6187L5.54056 18.8365ZM5.14098 19.5134C5.14327 19.5147 5.14555 19.5159 5.14781 19.5172L5.27032 19.2993C5.26808 19.298 5.26588 19.2968 5.26368 19.2955L5.14098 19.5134ZM5.10142 19.3447L5.00557 19.5071L5.22085 19.6342L5.31671 19.4718L5.10142 19.3447ZM5.81031 19.7897C5.59384 19.6878 5.3818 19.5784 5.17455 19.4617L5.05187 19.6795C5.26443 19.7992 5.48189 19.9115 5.70389 20.0159L5.81031 19.7897ZM6.46675 20.0698C6.24505 19.9846 6.02608 19.8912 5.81031 19.7897L5.70389 20.0159C5.92517 20.12 6.14973 20.2158 6.37707 20.3031L6.46675 20.0698ZM4.48356 18.0607C4.48133 18.059 4.47912 18.0573 4.47678 18.0555L4.32345 18.2529C4.32569 18.2547 4.32806 18.2565 4.33041 18.2583L4.48356 18.0607ZM4.49712 18.2331L4.61566 18.0872L4.42166 17.9295L4.30312 18.0754L4.49712 18.2331ZM3.46532 17.2278C3.76857 17.5441 4.09504 17.8381 4.44207 18.1071L4.59526 17.9096C4.2579 17.648 3.94055 17.3623 3.6458 17.0548L3.46532 17.2278ZM2.88136 17.7617C2.88343 17.7639 2.88551 17.7661 2.88758 17.7682L3.0679 17.5951C3.06588 17.593 3.06386 17.5908 3.06184 17.5887L2.88136 17.7617ZM2.89339 17.5894L2.75516 17.7158L2.92386 17.9003L3.06209 17.7739L2.89339 17.5894ZM3.98622 18.6727C3.61084 18.3816 3.25772 18.0637 2.92975 17.7215L2.74927 17.8945C3.08574 18.2456 3.44798 18.5717 3.83303 18.8702L3.98622 18.6727ZM2.68513 16.1847C2.68356 16.1825 2.68198 16.1803 2.6804 16.1781L2.47631 16.3224C2.47793 16.3247 2.47956 16.327 2.48119 16.3293L2.68513 16.1847ZM2.64838 16.3538L2.80299 16.2492L2.66293 16.0421L2.50832 16.1467L2.64838 16.3538ZM2.2728 15.671C2.38564 15.8581 2.50514 16.0405 2.63099 16.218L2.83493 16.0734C2.71264 15.9009 2.59651 15.7236 2.48686 15.5419L2.2728 15.671ZM1.95523 15.0975C2.05367 15.292 2.15956 15.4833 2.2728 15.671L2.48686 15.5419C2.37682 15.3595 2.27393 15.1736 2.17829 14.9846L1.95523 15.0975ZM1.23813 15.4437C1.2392 15.4458 1.24028 15.448 1.24136 15.4501L1.46433 15.337C1.46329 15.335 1.46225 15.3329 1.46119 15.3308L1.23813 15.4437ZM1.29849 15.281L1.13094 15.3619L1.23964 15.587L1.40719 15.5061L1.29849 15.281ZM1.64018 16.0381C1.51773 15.8351 1.40324 15.6283 1.29682 15.418L1.07376 15.5309C1.18298 15.7467 1.30047 15.959 1.42611 16.1672L1.64018 16.0381ZM2.02748 16.6295C1.8914 16.4376 1.76218 16.2403 1.64018 16.0381L1.42611 16.1672C1.55131 16.3748 1.6839 16.5772 1.82354 16.7741L2.02748 16.6295ZM1.51506 13.8724L1.51344 13.8674L1.27608 13.9459L1.27771 13.9509L1.51506 13.8724ZM1.4324 14.0259L1.60936 13.97L1.53408 13.7316L1.35712 13.7875L1.4324 14.0259ZM1.13632 12.624C1.21022 13.0531 1.31609 13.4763 1.45305 13.8901L1.69039 13.8115C1.55733 13.4095 1.45449 12.9984 1.38269 12.5816L1.13632 12.624ZM0.347476 12.7536L0.347966 12.7565L0.594333 12.714L0.593842 12.7112L0.347476 12.7536ZM0.450884 12.6119L0.268073 12.6419L0.308604 12.8886L0.491415 12.8586L0.450884 12.6119ZM0.753914 14.1127C0.605854 13.6654 0.491413 13.2079 0.411525 12.7441L0.165152 12.7865C0.247152 13.2626 0.364616 13.7322 0.516578 14.1912L0.753914 14.1127ZM0.954126 11.4528L1.13921 11.4487L1.13363 11.1988L0.948547 11.2029L0.954126 11.4528ZM1.02192 10.6744C1.01029 10.892 1.00684 11.1095 1.01145 11.3264L1.26139 11.3211C1.25691 11.1104 1.26027 10.8991 1.27156 10.6877L1.02192 10.6744ZM1.08094 10.0251C1.05326 10.2402 1.03354 10.4568 1.02192 10.6744L1.27156 10.6877C1.28285 10.4763 1.30201 10.266 1.32889 10.057L1.08094 10.0251ZM1.22014 9.917L1.03632 9.89444L1.00586 10.1426L1.18969 10.1651L1.22014 9.917ZM1.14507 10.0344L1.14535 10.0323L0.897389 10.0004L0.897109 10.0026L1.14507 10.0344ZM0.287863 10.6366C0.300425 10.4015 0.321744 10.1674 0.351659 9.93487L0.103703 9.90297C0.0729967 10.1416 0.0511131 10.3819 0.0382187 10.6233L0.287863 10.6366ZM0.276551 11.3414C0.271563 11.107 0.275295 10.8719 0.287863 10.6366L0.0382187 10.6233C0.0253187 10.8648 0.0214876 11.1061 0.0266081 11.3468L0.276551 11.3414ZM0.635188 8.55422C0.764026 8.10117 0.92655 7.65806 1.12143 7.22852L0.893765 7.12523C0.693765 7.56605 0.52696 8.02083 0.394722 8.48584L0.635188 8.55422ZM1.8501 7.55094C1.85099 7.54898 1.85188 7.54701 1.85277 7.54505L1.62511 7.44176C1.62419 7.44378 1.62327 7.4458 1.62236 7.44783L1.8501 7.55094ZM1.95649 7.45851L1.78588 7.38467L1.68658 7.6141L1.85719 7.68794L1.95649 7.45851ZM1.79301 7.52158C1.61275 7.91889 1.46241 8.32878 1.34323 8.74788L1.58369 8.81626C1.69948 8.40911 1.84554 8.01089 2.02067 7.62487L1.79301 7.52158ZM0.573732 8.53437L0.572484 8.53876L0.812936 8.60719L0.814183 8.60281L0.573732 8.53437ZM0.482227 8.64067L0.66123 8.68923L0.726685 8.44795L0.547683 8.39939L0.482227 8.64067ZM1.74938 5.94825C1.7479 5.95052 1.74643 5.95279 1.74497 5.95506L1.95483 6.09091C1.95627 6.08869 1.9577 6.08648 1.95913 6.08428L1.74938 5.94825ZM1.62992 6.02464L1.78858 6.12262L1.91993 5.90991L1.76127 5.81193L1.62992 6.02464ZM1.80053 5.98621C1.92881 5.78803 2.06476 5.59409 2.20821 5.40484L2.00897 5.25383C1.86179 5.448 1.7223 5.647 1.59066 5.85036L1.80053 5.98621ZM2.20821 5.40484C2.35109 5.21634 2.50062 5.03354 2.65641 4.85672L2.46883 4.69145C2.309 4.87286 2.15558 5.06041 2.00897 5.25383L2.20821 5.40484ZM3.257 5.37287C3.25891 5.37069 3.26083 5.36852 3.26273 5.36636L3.07515 5.20109C3.07318 5.20333 3.07122 5.20556 3.06926 5.20779L3.257 5.37287ZM3.38679 5.31503L3.24356 5.19464L3.0827 5.38602L3.22593 5.50641L3.38679 5.31503ZM3.21257 5.32809C3.06852 5.49158 2.93025 5.66062 2.79812 5.83493L2.99735 5.98595C3.12576 5.81654 3.26014 5.65226 3.40015 5.49336L3.21257 5.32809ZM2.79812 5.83493C2.66546 6.00994 2.53974 6.18929 2.4211 6.37258L2.63097 6.50843C2.74626 6.33032 2.86843 6.15603 2.99735 5.98595L2.79812 5.83493ZM3.6334 3.81355C3.63113 3.81546 3.62885 3.81738 3.62657 3.81931L3.78791 4.01028C3.79012 4.00841 3.79233 4.00654 3.79456 4.00467L3.6334 3.81355ZM3.49591 3.8514L3.6204 3.99198L3.80756 3.82624L3.68307 3.68566L3.49591 3.8514ZM3.67016 3.86402C4.0328 3.55766 4.41789 3.27802 4.82224 3.0274L4.69054 2.81491C4.27581 3.07195 3.88083 3.35878 3.50882 3.67304L3.67016 3.86402ZM5.24406 3.6913C5.24632 3.6899 5.24858 3.6885 5.25084 3.6871L5.11914 3.4746C5.11681 3.47604 5.11449 3.47748 5.11217 3.47892L5.24406 3.6913ZM5.38557 3.67498L5.28294 3.51701L5.0733 3.65321L5.17593 3.81118L5.38557 3.67498ZM5.2149 3.63684C4.84113 3.86849 4.48515 4.127 4.14987 4.41023L4.31121 4.60121C4.63712 4.32588 4.9832 4.07456 5.3466 3.84933L5.2149 3.63684ZM6.30934 3.16649L6.32075 3.19163L6.5484 3.08832L6.537 3.06318L6.30934 3.16649ZM6.32826 3.27947L6.46367 3.23309L6.38267 2.99658L6.24725 3.04296L6.32826 3.27947ZM6.08796 2.97462L6.17011 3.20345L6.4054 3.11898L6.32325 2.89015L6.08796 2.97462ZM6.28174 2.77419L6.1651 2.81413L6.24611 3.05065L6.36274 3.0107L6.28174 2.77419ZM6.08181 2.59299L6.16088 2.56591L6.07988 2.3294L6.00081 2.35648L6.08181 2.59299ZM5.85385 2.32253L5.92366 2.51697L6.15895 2.4325L6.08915 2.23806L5.85385 2.32253ZM6.02201 2.39464C6.04399 2.38493 6.06602 2.37529 6.08808 2.36574L5.98875 2.13632C5.96613 2.14612 5.94354 2.15599 5.92099 2.16595L6.02201 2.39464ZM6.08808 2.36574C6.18656 2.3231 6.28585 2.28204 6.38592 2.24257L6.29419 2.01001C6.19157 2.05048 6.08975 2.09259 5.98875 2.13632L6.08808 2.36574ZM6.38592 2.24257C6.50788 2.19446 6.63099 2.14873 6.75519 2.10541L6.67286 1.86936C6.5455 1.91377 6.41926 1.96067 6.29419 2.01001L6.38592 2.24257ZM7.00145 2.78463C6.79248 2.85751 6.58686 2.93783 6.38491 3.02526L6.48424 3.25468C6.68064 3.16965 6.88059 3.09154 7.08377 3.02068L7.00145 2.78463ZM19.2919 8.31031C19.3239 8.41229 19.3541 8.51469 19.3826 8.61746L19.6235 8.55075C19.5943 8.44526 19.5633 8.34016 19.5304 8.23549L19.2919 8.31031ZM19.1687 7.94385C19.2123 8.06535 19.2534 8.18753 19.2919 8.3103L19.5304 8.23549C19.4909 8.10947 19.4488 7.98408 19.404 7.85938L19.1687 7.94385ZM18.6732 8.80638C18.6152 8.59687 18.5493 8.389 18.4754 8.18324L18.2401 8.26772C18.3119 8.46757 18.3759 8.66952 18.4323 8.87309L18.6732 8.80638ZM18.5847 8.96059L18.6116 8.95347L18.5478 8.71176L18.5208 8.71888L18.5847 8.96059ZM18.4623 8.87554L18.5093 9.00422L18.7441 8.91838L18.6971 8.78969L18.4623 8.87554ZM18.6679 9.07932L18.9 8.99835L18.8177 8.7623L18.5856 8.84327L18.6679 9.07932ZM18.9763 8.83741L18.9358 8.72664L18.701 8.81248L18.7415 8.92325L18.9763 8.83741ZM19.1784 8.68637L19.2058 8.76131L19.4406 8.67546L19.4132 8.60052L19.1784 8.68637ZM19.3644 8.83641L19.562 8.76747L19.4797 8.53142L19.282 8.60036L19.3644 8.83641ZM19.3826 8.61746C19.3885 8.63894 19.3944 8.66043 19.4002 8.68195L19.6416 8.61693C19.6356 8.59486 19.6296 8.5728 19.6235 8.55075L19.3826 8.61746ZM19.7664 9.86207L18.972 9.95411L19.0008 10.2025L19.7951 10.1104L19.7664 9.86207ZM19.0437 11.5162L19.8433 11.5379L19.8501 11.288L19.0505 11.2662L19.0437 11.5162ZM19.5387 12.6763L18.7508 12.5413L18.7085 12.7877L19.4964 12.9227L19.5387 12.6763ZM18.5451 14.0905L19.3045 14.3361L19.3814 14.0982L18.622 13.8526L18.5451 14.0905ZM18.6759 15.333L17.9612 14.982L17.851 15.2064L18.5657 15.5574L18.6759 15.333ZM17.3103 16.4102L17.9649 16.8594L18.1063 16.6532L17.4518 16.2041L17.3103 16.4102ZM17.0653 17.6334L16.4853 17.0954L16.3153 17.2786L16.8953 17.8167L17.0653 17.6334ZM15.4438 18.2774L15.9366 18.8928L16.1318 18.7366L15.639 18.1211L15.4438 18.2774ZM14.8478 19.3741L14.453 18.6945L14.2368 18.8201L14.6316 19.4996L14.8478 19.3741ZM13.1113 19.5272L13.3991 20.2562L13.6316 20.1644L13.3439 19.4354L13.1113 19.5272ZM12.209 20.4076L12.0349 19.645L11.7912 19.7006L11.9653 20.4632L12.209 20.4076ZM10.5087 20.0555L10.5652 20.8348L10.8146 20.8167L10.758 20.0374L10.5087 20.0555ZM7.90446 19.6306L7.72482 20.392L7.96814 20.4494L8.14778 19.6881L7.90446 19.6306ZM9.36458 20.8306L9.42686 20.0517L9.17766 20.0318L9.11537 20.8107L9.36458 20.8306ZM6.53786 20.2331L6.83073 19.5061L6.59883 19.4127L6.30596 20.1397L6.53786 20.2331ZM5.49425 18.6641L5.09469 19.3409L5.30998 19.468L5.70953 18.7911L5.49425 18.6641ZM4.00662 18.8503L4.50398 18.2384L4.30998 18.0807L3.81262 18.6926L4.00662 18.8503ZM3.47121 17.049L2.88725 17.583L3.05595 17.7675L3.63991 17.2335L3.47121 17.049ZM1.99554 16.8054L2.65319 16.3606L2.51313 16.1535L1.85548 16.5983L1.99554 16.8054ZM2.01241 14.9285L1.29531 15.2747L1.40401 15.4998L2.12111 15.1536L2.01241 14.9285ZM0.672886 14.2712L1.43403 14.0308L1.35875 13.7924L0.597606 14.0328L0.672886 14.2712ZM1.23924 12.4795L0.450394 12.6091L0.490925 12.8558L1.27977 12.7262L1.23924 12.4795ZM0.154117 11.4691L0.953873 11.4528L0.9488 11.2029L0.149043 11.2191L0.154117 11.4691ZM1.0366 9.89226L0.242909 9.79485L0.212454 10.043L1.00614 10.1404L1.0366 9.89226ZM1.78859 7.37868L1.05725 7.06215L0.957947 7.29159L1.68929 7.60812L1.78859 7.37868ZM0.659982 8.69361L1.43073 8.90271L1.49619 8.66143L0.725438 8.45234L0.659982 8.69361ZM1.78423 6.12934L2.46036 6.54686L2.59171 6.33415L1.91558 5.91663L1.78423 6.12934ZM3.24937 5.18803L2.64305 4.6784L2.48219 4.86977L3.08851 5.37941L3.24937 5.18803ZM3.61366 3.99766L4.13696 4.58859L4.32412 4.42285L3.80082 3.83192L3.61366 3.99766ZM5.28981 3.51275L4.86121 2.85305L4.65157 2.98926L5.08017 3.64895L5.28981 3.51275ZM6.00656 2.49931L6.20841 2.9441L6.43607 2.84079L6.23421 2.396L6.00656 2.49931ZM6.59638 2.02962L6.92496 2.94489L7.16026 2.86042L6.83167 1.94515L6.59638 2.02962ZM18.3989 8.34351L19.3275 8.01965L19.2452 7.78359L18.3166 8.10745L18.3989 8.34351ZM18.8503 8.89041L19.3277 8.7643L19.2639 8.52259L18.7865 8.6487L18.8503 8.89041ZM18.7133 13.3246C19.1515 11.6253 19.0688 9.83609 18.4754 8.18324L18.2401 8.26772C18.8166 9.87341 18.8969 11.6115 18.4712 13.2622L18.7133 13.3246ZM16.0136 17.7291C17.3354 16.5566 18.275 15.0239 18.7133 13.3246L18.4712 13.2622C18.0454 14.9129 17.1325 16.4024 15.8477 17.5421L16.0136 17.7291ZM11.2877 19.9123C13.0472 19.6613 14.6918 18.9016 16.0136 17.7291L15.8477 17.5421C14.5628 18.6819 12.9636 19.4207 11.2524 19.6648L11.2877 19.9123ZM6.12818 19.1397C7.73276 19.8945 9.52826 20.1633 11.2877 19.9123L11.2524 19.6648C9.54114 19.909 7.79491 19.6474 6.2346 18.9134L6.12818 19.1397ZM2.2728 15.671C3.18182 17.1778 4.52358 18.3848 6.12818 19.1397L6.2346 18.9134C4.6743 18.1795 3.37016 17.006 2.48686 15.5419L2.2728 15.671ZM1.02192 10.6744C0.92839 12.4253 1.36376 14.1642 2.2728 15.671L2.48686 15.5419C1.60358 14.0777 1.18071 12.3885 1.27156 10.6877L1.02192 10.6744ZM2.79812 5.83493C1.73365 7.23927 1.11544 8.92339 1.02192 10.6744L1.27156 10.6877C1.3624 8.9869 1.9629 7.35068 2.99735 5.98595L2.79812 5.83493ZM7.00145 2.78463C5.32539 3.36918 3.86257 4.43062 2.79812 5.83493L2.99735 5.98595C4.03182 4.6212 5.45383 3.58916 7.08377 3.02068L7.00145 2.78463ZM6.02201 2.39464C6.2617 2.28876 6.50627 2.19223 6.75519 2.10541L6.67286 1.86936C6.4176 1.95838 6.1668 2.05738 5.92099 2.16595L6.02201 2.39464ZM2.20821 5.40484C3.20129 4.09469 4.51534 3.06014 6.02201 2.39464L5.92099 2.16595C4.37591 2.84843 3.02793 3.90954 2.00897 5.25383L2.20821 5.40484ZM0.287863 10.6366C0.388951 8.74409 1.05715 6.92341 2.20821 5.40484L2.00897 5.25383C0.827899 6.812 0.141987 8.68058 0.0382187 10.6233L0.287863 10.6366ZM1.64018 16.0381C0.65732 14.4089 0.186775 12.5292 0.287863 10.6366L0.0382187 10.6233C-0.0655497 12.566 0.417505 14.4954 1.42611 16.1672L1.64018 16.0381ZM5.81031 19.7897C4.07418 18.973 2.62305 17.6673 1.64018 16.0381L1.42611 16.1672C2.43471 17.8391 3.92347 19.1784 5.70389 20.0159L5.81031 19.7897ZM11.3935 20.6257C9.48944 20.8974 7.54645 20.6064 5.81031 19.7897L5.70389 20.0159C7.48429 20.8534 9.47656 21.1517 11.4288 20.8732L11.3935 20.6257ZM16.5066 18.2638C15.0769 19.532 13.2976 20.3541 11.3935 20.6257L11.4288 20.8732C13.3811 20.5947 15.2059 19.7518 16.6725 18.4508L16.5066 18.2638ZM19.4259 13.5014C18.9521 15.3382 17.9363 16.9956 16.5066 18.2638L16.6725 18.4508C18.1392 17.1498 19.1817 15.4492 19.668 13.5638L19.4259 13.5014ZM19.4002 8.68195C19.8241 10.2559 19.8351 11.9149 19.4259 13.5014L19.668 13.5638C20.088 11.9354 20.0767 10.2325 19.6416 8.61694L19.4002 8.68195ZM19.1687 7.94385C19.2561 8.18736 19.3333 8.4336 19.4002 8.68195L19.6416 8.61694C19.5729 8.36203 19.4937 8.1093 19.404 7.85938L19.1687 7.94385ZM8.80882 1.67934L7.00106 3.71505L7.188 3.88105L8.99576 1.84534L8.80882 1.67934ZM7.21237 3.75636L6.31124 1.2094L6.07556 1.29278L6.97669 3.83975L7.21237 3.75636ZM6.17022 1.37392L8.87911 1.88518L8.92547 1.63951L6.21659 1.12826L6.17022 1.37392Z" fill="white"/>
                    </svg>