<svg width="42" height="42" viewBox="0 0 42 42" fill="none" xmlns="http://www.w3.org/2000/svg">
                                        <g clip-path="url(#clip0_1_400)">
                                        <path d="M9.62453 0.974091C8.58148 0.974091 7.57955 1.42111 6.87497 2.20102C6.18252 2.96878 5.84136 3.99651 5.93305 5.0256H5.9162V38.0845C5.9162 39.9617 7.44133 41.4892 9.31573 41.4892H36.2571V8.40185V7.05135V0.974091H9.62453ZM7.26468 38.0845V7.72525C7.82835 8.14998 8.52889 8.40185 9.28741 8.40185V40.136C8.16952 40.1204 7.26468 39.2075 7.26468 38.0845ZM34.9086 40.1387H10.6359V8.40185H12.6586V25.4189C12.6586 25.8794 12.956 26.271 13.3996 26.3939C13.492 26.4189 13.5837 26.4317 13.6747 26.4317C13.6848 26.4317 13.6943 26.4284 13.7044 26.4277C13.7347 26.427 13.7637 26.4196 13.794 26.4162C13.8635 26.4081 13.9302 26.3939 13.9956 26.3716C14.028 26.3608 14.0584 26.348 14.0887 26.3338C14.1521 26.3048 14.2101 26.2683 14.266 26.2265C14.2903 26.2082 14.3152 26.1927 14.3375 26.1724C14.4123 26.1056 14.4804 26.03 14.5344 25.9388L17.3776 21.1931L20.2209 25.9395C20.4414 26.3075 20.854 26.4804 21.266 26.4034C21.2963 26.398 21.326 26.402 21.3563 26.3939C21.7993 26.2703 22.0973 25.8787 22.0973 25.4189V8.40185H34.9079V40.1387H34.9086ZM20.8439 7.3775L20.8419 7.38222L20.7495 7.56724V7.5956L20.6821 7.75091L20.7495 7.85355V7.92918V24.196L17.3783 18.5691L14.0071 24.196V7.88596L15.098 5.70085H21.6813L20.8439 7.3775ZM22.5147 7.05135L23.8632 4.35035H14.2647L12.9162 7.05135H9.76747C8.49046 7.05135 7.39684 6.12018 7.27749 4.93106C7.2094 4.25716 7.42178 3.6096 7.87555 3.10721C8.32392 2.60955 8.96175 2.32459 9.62453 2.32459H34.9086V2.99984H31.5374C31.1646 2.99984 30.8632 3.30168 30.8632 3.6751C30.8632 4.04851 31.1646 4.35035 31.5374 4.35035H34.9086V5.0256H32.2117C31.8388 5.0256 31.5374 5.32743 31.5374 5.70085C31.5374 6.07426 31.8388 6.3761 32.2117 6.3761H34.9086V7.05135H22.5147Z" fill="#1D499E" stroke="#1D499E" stroke-width="0.4"/>
                                        </g>
                                        <defs>
                                        <clipPath id="clip0_1_400">
                                        <rect width="40.4545" height="40.5151" fill="white" transform="translate(0.859375 0.974091)"/>
                                        </clipPath>
                                        </defs>
                                    </svg>