<svg xmlns="http://www.w3.org/2000/svg" width="52" height="38" viewBox="0 0 52 38" fill="none">
<path fill-rule="evenodd" clip-rule="evenodd" d="M44.915 13.5231L29.6445 4.04169L36.2398 0L51.6272 9.4615L44.915 13.5231ZM20.8997 9.3509L36.1479 18.757L43.3127 14.4765L28.2314 4.87305L20.8997 9.3509ZM20.8813 28.1447L20.7894 11.6289L35.3028 20.3737L35.5045 37.2713L20.8813 28.1447ZM51.7083 28.1447V11.6473L37.0664 20.4472L37.1215 36.9997L51.7083 28.1447ZM6.89511 17.6424H17.1706V16.0569H6.89511V17.6424ZM3.47003 22.9073V21.3517H17.1856V22.9073H3.47003ZM17.2005 28.0375V26.4969H0.00161423V28.0375H17.2005ZM39.1049 21.6439V24.8666L42.314 22.9765V19.7946L39.1049 21.6439Z" fill="#1D499E"/>
</svg>