<svg width="20" height="20" viewBox="0 0 20 20" fill="none" xmlns="http://www.w3.org/2000/svg">
                        <path d="M8.3135 13.048C8.35785 13.048 8.39381 13.008 8.39381 12.9586V12.2438C8.39381 12.1944 8.35785 12.1544 8.3135 12.1544H6.86787C6.82352 12.1544 6.78756 12.1944 6.78756 12.2438V12.9586C6.78756 13.008 6.82352 13.048 6.86787 13.048H8.3135Z" fill="white"/>
                        <path d="M10.7229 13.048C10.7672 13.048 10.8032 13.008 10.8032 12.9586V12.2438C10.8032 12.1944 10.7672 12.1544 10.7229 12.1544H9.27725C9.23289 12.1544 9.19694 12.1944 9.19694 12.2438V12.9586C9.19694 13.008 9.23289 13.048 9.27725 13.048H10.7229Z" fill="white"/>
                        <path d="M13.1322 13.048C13.1766 13.048 13.2126 13.008 13.2126 12.9586V12.2438C13.2126 12.1944 13.1766 12.1544 13.1322 12.1544H11.6866C11.6423 12.1544 11.6063 12.1944 11.6063 12.2438V12.9586C11.6063 13.008 11.6423 13.048 11.6866 13.048H13.1322Z" fill="white"/>
                        <path fill-rule="evenodd" clip-rule="evenodd" d="M2.22223 19.25V0.75C2.22223 0.335786 2.55802 0 2.97223 0H10.2501C10.6643 0 11.0001 0.335787 11.0001 0.75V6.25C11.0001 6.66421 11.3358 7 11.7501 7H17.0278C17.442 7 17.7778 7.33579 17.7778 7.75L17.7778 19.25C17.7778 19.6642 17.442 20 17.0278 20H2.97223C2.55802 20 2.22223 19.6642 2.22223 19.25ZM4.50006 3C4.50006 2.72386 4.72392 2.5 5.00006 2.5H8.00006C8.2762 2.5 8.50006 2.72386 8.50006 3C8.50006 3.27614 8.2762 3.5 8.00006 3.5H5.00006C4.72392 3.5 4.50006 3.27614 4.50006 3ZM4.50006 5C4.50006 4.72386 4.72392 4.5 5.00006 4.5H8.00006C8.2762 4.5 8.50006 4.72386 8.50006 5C8.50006 5.27614 8.2762 5.5 8.00006 5.5H5.00006C4.72392 5.5 4.50006 5.27614 4.50006 5ZM9.96414 9.49381C9.98675 9.48123 10.0134 9.48123 10.036 9.49381L13.9713 11.683C13.9985 11.6981 14.0157 11.729 14.0157 11.7629V17.4263C14.0157 17.4756 13.9797 17.5156 13.9354 17.5156H6.06475C6.02039 17.5156 5.98444 17.4756 5.98444 17.4263V11.7629C5.98444 11.729 6.00162 11.6981 6.02883 11.683L9.96414 9.49381Z" fill="white"/>
                        <path d="M12.0001 5.6V0.965686C12.0001 0.609324 12.4309 0.430856 12.6829 0.682842L17.3172 5.31716C17.5692 5.56914 17.3907 6 17.0344 6H12.4001C12.1791 6 12.0001 5.82091 12.0001 5.6Z" fill="white"/>
                    </svg> 