<svg width="20" height="20" viewBox="0 0 20 20" fill="none" xmlns="http://www.w3.org/2000/svg">
<path d="M4 17.1764C4 17.0659 4.08954 16.9764 4.2 16.9764H5.8C5.91046 16.9764 6 17.0659 6 17.1764V18.7764C6 18.8868 5.91046 18.9764 5.8 18.9764H4.2C4.08954 18.9764 4 18.8868 4 18.7764V17.1764ZM10.0894 1.02111C10.0331 0.992962 9.96686 0.992962 9.91056 1.02111L0.110557 5.92111C0.0428003 5.95499 0 6.02425 0 6.1V18.7764C0 18.8868 0.0895431 18.9764 0.2 18.9764H1.8C1.91046 18.9764 2 18.8868 2 18.7764V11.1764C2 11.0659 2.08954 10.9764 2.2 10.9764H17.8C17.9105 10.9764 18 11.0659 18 11.1764V18.7764C18 18.8868 18.0895 18.9764 18.2 18.9764H19.8C19.9105 18.9764 20 18.8868 20 18.7764V6.1C20 6.02425 19.9572 5.95499 19.8894 5.92111L10.0894 1.02111ZM6 8.77639C6 8.88685 5.91046 8.97639 5.8 8.97639H2.2C2.08954 8.97639 2 8.88685 2 8.77639V7.17639C2 7.06594 2.08954 6.97639 2.2 6.97639H5.8C5.91046 6.97639 6 7.06594 6 7.17639V8.77639ZM12 8.77639C12 8.88685 11.9105 8.97639 11.8 8.97639H8.2C8.08954 8.97639 8 8.88685 8 8.77639V7.17639C8 7.06594 8.08954 6.97639 8.2 6.97639H11.8C11.9105 6.97639 12 7.06594 12 7.17639V8.77639ZM18 8.77639C18 8.88685 17.9105 8.97639 17.8 8.97639H14.2C14.0895 8.97639 14 8.88685 14 8.77639V7.17639C14 7.06594 14.0895 6.97639 14.2 6.97639H17.8C17.9105 6.97639 18 7.06594 18 7.17639V8.77639ZM4 13.1764C4 13.0659 4.08954 12.9764 4.2 12.9764H5.8C5.91046 12.9764 6 13.0659 6 13.1764V14.7764C6 14.8869 5.91046 14.9764 5.8 14.9764H4.2C4.08954 14.9764 4 14.8869 4 14.7764V13.1764ZM8 13.1764C8 13.0659 8.08954 12.9764 8.2 12.9764H9.8C9.91046 12.9764 10 13.0659 10 13.1764V14.7764C10 14.8869 9.91046 14.9764 9.8 14.9764H8.2C8.08954 14.9764 8 14.8869 8 14.7764V13.1764ZM8 17.1764C8 17.0659 8.08954 16.9764 8.2 16.9764H9.8C9.91046 16.9764 10 17.0659 10 17.1764V18.7764C10 18.8868 9.91046 18.9764 9.8 18.9764H8.2C8.08954 18.9764 8 18.8868 8 18.7764V17.1764ZM12 17.1764C12 17.0659 12.0895 16.9764 12.2 16.9764H13.8C13.9105 16.9764 14 17.0659 14 17.1764V18.7764C14 18.8868 13.9105 18.9764 13.8 18.9764H12.2C12.0895 18.9764 12 18.8868 12 18.7764V17.1764Z" fill="white"/>
</svg>
