<svg width="580" height="84" viewBox="0 0 580 84" fill="none" xmlns="http://www.w3.org/2000/svg">
<g opacity="0.1">
<path d="M567.526 71.3242C542.019 71.8747 516.508 72.4253 491.001 72.9758C470.82 73.4116 450.558 73.8532 430.669 76.1786C424.492 76.9012 418.259 77.8073 412.01 77.4603C413.583 75.35 418.143 75.8059 421.677 75.7084C428.477 75.5163 434.576 71.5651 435.058 67.0346C436.472 66.7536 437.129 68.173 437 69.1536C436.536 72.6088 438.402 82.6073 433.893 81.8646C433.996 78.094 433.837 72.712 434.219 69.1593C434.28 68.6059 434.331 67.3156 434.976 66.9658C436.36 66.2117 441.643 67.2669 442.61 68.2705C443.577 69.274 443.616 70.5385 443.607 71.7285C443.59 73.7873 443.517 77.8761 443.388 79.932C441.767 79.4274 441.815 75.8948 441.746 74.702C441.604 72.1643 439.876 69.7127 436.884 68.1472C445.795 70.4927 454.822 72.6833 464.394 72.9443C475.424 73.2453 486.282 70.9256 496.25 67.7658C506.218 64.6031 515.528 60.5946 525.328 57.2082C526.687 56.738 528.359 56.282 529.674 56.8096C531.088 57.3774 531.161 58.6992 531.071 59.7974C530.564 65.8877 530.061 71.978 529.554 78.0711C529.485 78.9026 529.219 79.9177 528.041 80.1901C526.18 80.6173 525.109 78.8023 525.036 77.4919C524.752 72.4138 524.473 67.3357 524.189 62.2576C524.121 61.039 524.078 59.7487 524.98 58.6878C526.442 56.9673 530.125 56.4799 532.808 57.3229C535.49 58.1659 537.201 60.0268 537.888 61.9508C538.576 63.8748 538.387 65.8848 538.198 67.8576C537.897 70.9744 537.592 74.0912 537.291 77.208C535.15 71.3185 535.657 65.1651 536.173 59.115C543.781 63.1637 552.907 67.2009 562.48 68.3737C567.737 69.016 573.294 69.168 578.293 67.9063" stroke="#7680B9" stroke-width="2.9638" stroke-miterlimit="10" stroke-linecap="round" stroke-linejoin="round"/>
<path d="M408.064 79.7137C407.982 79.5617 409.018 67.9116 408.76 65.4773C408.636 64.2873 408.507 63.1002 408.382 61.9103C408.249 60.64 408.073 59.2895 406.929 58.2687C407.222 58.2544 396.574 57.7469 396.269 58.5038C393.763 60.7031 393.522 64.1697 393.389 66.9339C389.13 66.6987 384.84 66.7389 380.589 67.0514C379.768 70.174 379.419 74.0793 383.417 75.7911C384.913 76.4306 386.74 76.6026 388.502 76.7402C397.885 77.4743 403.297 77.6693 412.367 77.4685" stroke="#7680B9" stroke-width="2.9638" stroke-miterlimit="10" stroke-linecap="round" stroke-linejoin="round"/>
<path d="M140.343 75.3763C147.946 76.6437 156.874 77.4064 164.482 77.9139C169.047 78.1663 173.608 78.1663 178.173 77.6616C180.455 77.1541 183.116 77.1541 185.016 75.8867C176.269 75.8867 169.426 77.4093 158.473 75.339C159.948 75.5226 158.396 75.3792 158.473 75.339C161.822 74.8717 163.339 72.3369 166.004 70.5592C166.765 70.0516 168.286 70.5592 168.286 70.3068C170.947 67.0094 169.426 62.6969 167.134 59.4998C166.378 60.1363 168.226 61.1112 167.134 59.4998C166.387 60.4144 166.004 61.4295 166.765 62.4445C168.665 62.4445 170.947 62.4445 173.002 62.3958C177.038 62.2553 181.048 61.8252 184.943 61.1083C181.637 59.1757 176.634 60.6496 172.856 60.9334C171.386 61.0424 168.691 61.266 168.218 59.9929C167.831 58.9464 169.133 57.7707 169.864 56.922C172.181 54.2324 171.695 50.9522 171.467 47.9873C170.934 41.1372 170.401 34.2871 169.873 27.437C173.174 27.7839 172.43 31.8125 172.512 33.3036C172.679 36.3 172.869 39.2992 173.019 42.2956C172.817 40.7415 172.873 39.1731 173.174 37.6247C173.681 38.0204 173.995 38.5164 174.072 39.0326C174.554 38.072 175.035 37.1114 175.516 36.148C175.925 36.7817 176.333 37.4125 176.741 38.0462C177.223 37.4068 177.704 36.7645 178.186 36.1251C178.233 36.8247 178.28 37.5243 178.332 38.2211C179.29 37.6706 180.245 37.1229 181.203 36.5724C179.694 38.3415 178.173 40.8763 178.934 42.9064C180.073 42.9064 181.594 42.654 181.977 43.4139C182.738 45.444 182.355 48.4862 178.555 48.9938C177.795 45.9486 181.216 43.6662 184.994 42.3931C185.123 43.9271 182.935 43.0497 184.994 42.3931C185.02 43.1615 185.02 43.9214 184.642 44.6812C182.742 47.9787 178.938 51.0238 179.316 54.8288C179.694 57.1112 181.977 59.3937 185.351 60.3313C181.56 62.8574 182.497 67.7205 187.118 69.5269C182.359 69.7936 177.412 71.0609 172.469 70.0488C171.708 69.7964 172.091 68.5262 173.23 68.5262C178.173 68.0187 183.877 68.2739 187.47 70.5592C185.949 71.3735 184.59 68.6495 187.47 70.5592C186.159 71.8237 185.781 73.5986 188.063 74.3613C189.963 74.8688 192.246 74.3613 194.15 75.1211C197.954 77.1512 215.792 79.4336 219.597 76.6437C222.257 74.6136 222.829 71.4423 222.64 69.7936C222.524 68.7814 224.161 69.0337 225.301 68.7785C227.2 68.5262 229.865 68.5262 230.845 69.7506C231.636 70.4846 231.946 71.6086 230.841 72.2824C230.841 72.2824 227.635 73.4724 228.653 65.4811C229.139 61.6703 229.169 57.8396 229.423 54.0202C229.479 53.2059 229.603 52.2941 230.536 51.7665C231.207 51.388 232.139 51.3077 233.016 51.2676C235.32 51.1586 237.646 51.2016 239.937 51.3937C240.783 51.4654 241.686 51.5801 242.275 51.9901C242.817 52.3715 242.967 52.922 243.074 53.441C244.119 58.413 243.582 63.5313 241.506 68.3599C241.579 62.3642 241.329 56.3686 240.766 50.3873C240.547 48.0705 240.895 46.2009 240.895 46.2009C242.034 44.4261 246.599 41.3809 247.738 41.3809C248.877 41.3809 253.644 44.7357 253.894 46.3673C250.395 46.1608 246.896 45.9572 243.397 45.7508C242.464 45.6963 241.162 45.8511 241.175 46.4762C241.183 47.0382 242.305 47.2389 243.143 47.1959C246.595 47.0181 250.459 45.6906 253.206 47.0984C255.192 48.1163 255.364 50.0403 255.282 51.7091C255.097 55.474 254.517 59.2818 255.617 62.975C256.357 65.4667 257.844 67.8266 258.983 70.2466C260.217 72.8702 261.046 75.577 261.459 78.3096C261.519 78.7168 261.549 79.1727 261.145 79.4795C260.5 79.967 259.176 79.6716 258.721 79.0953C258.265 78.5189 258.411 77.8222 258.566 77.1799C264.403 53.1944 270.915 29.1287 270.163 4.83357C270.129 3.65795 270.283 2.28162 268.77 1.68234C267.988 3.98483 268.169 6.38194 268.409 8.73891C270.773 32.0563 278.472 55.0267 280.677 78.3526C280.698 78.5906 280.716 78.843 280.526 79.0437C280.165 79.4308 279.224 79.3734 278.747 79.0494C278.27 78.7254 278.137 78.2437 278.046 77.7906C277.522 75.124 277.745 72.4229 277.943 69.7362C279.246 52.0561 279.409 34.3387 278.437 16.65C278.377 15.5489 278.227 14.3188 276.989 13.5876C276.189 13.1145 275.093 12.9539 274.04 12.8392C270.159 12.412 266.939 12.6385 263.041 13.0084C266.681 14.0062 269.914 14.1668 273.834 13.9575C275.287 13.8801 277.402 14.1181 277.23 15.0844C274.062 15.6005 270.718 15.6177 267.537 15.136C266.118 14.9209 264.541 14.6227 263.281 15.1102C261.751 15.7037 261.562 17.103 261.549 18.2843C261.472 26.5681 261.394 34.8519 261.321 43.1357C261.261 49.7737 261.201 56.4145 261.712 63.0438C261.932 65.8596 262.258 68.6868 263.195 71.4366C263.905 73.5154 265.048 75.6287 267.382 77.0824C271.62 79.7204 279.396 79.0551 282.499 75.7892C284.687 73.4867 284.537 70.5649 284.313 67.8438C283.905 62.8288 283.492 57.8137 283.084 52.8016C289.648 52.2941 296.284 52.1995 302.874 52.5206C303.201 52.5378 303.557 52.5636 303.781 52.7213C304.009 52.8848 304.022 53.1314 304.017 53.355C303.927 60.1937 303.837 67.0352 303.746 73.8738C303.716 76.2652 303.312 79.1039 300.192 80.2795C299.586 80.5089 298.838 80.6523 298.193 80.4774C297.703 80.3455 297.359 80.053 297.067 79.7605C294.389 77.0795 293.28 71.8523 293.409 68.6323C293.469 67.1126 293 66.7484 297.548 66.78C297.436 65.4868 297.604 64.1822 298.038 62.9176L306.476 63.2187C308.973 63.451 311.634 63.1958 313.917 63.7033C315.438 64.2108 315.438 65.2259 314.295 65.7334C311.251 67.0008 309.73 64.466 309.73 62.9435C309.73 55.3335 308.969 47.4683 309.352 39.8584C313.534 38.8433 322.281 40.1107 322.281 40.1107C322.281 40.1107 322.281 40.1107 322.337 40.0476C318.86 40.6182 313.917 41.6332 311.256 39.8584C311.256 37.5759 310.878 34.5308 311.256 32.2484C315.06 32.2484 314.677 32.2484 314.299 25.9058C314.269 25.3983 313.921 24.6384 314.677 24.3832C316.96 23.8757 317.338 22.3531 317.338 21.0858C316.96 18.5481 316.049 13.6048 316.199 13.7281C316.199 13.7281 316.199 13.4758 316.345 13.5991C316.577 13.2206 316.96 13.7281 316.96 14.2356C316.96 17.0256 313.916 20.5782 315.438 23.3682C316.199 24.3832 318.481 23.8757 318.481 24.6355C319.62 27.1732 317.721 29.7079 318.86 32.2455C319.999 32.2455 321.52 32.4978 321.52 32.4978C321.899 34.7803 321.52 39.8555 321.52 39.8555C321.52 39.8555 321.52 39.8555 321.611 39.8985C323.042 39.6032 324.181 40.6182 324.181 41.378C323.42 46.9579 325.703 52.2855 324.942 57.8682" stroke="#7680B9" stroke-width="2.9638" stroke-miterlimit="10" stroke-linecap="round" stroke-linejoin="round"/>
<path d="M396.42 58.3823C394.52 69.7973 396.02 78.8094 396.42 79.6926C396.471 79.8072 407.982 79.8187 408.064 79.7184" stroke="#7680B9" stroke-width="2.9638" stroke-miterlimit="10" stroke-linecap="round" stroke-linejoin="round"/>
<path d="M325.548 57.8762C325.247 64.6976 325.638 71.5334 326.713 78.3205C325.531 77.1706 324.692 75.866 324.254 74.5011C323.73 72.8581 323.979 70.8825 326.003 69.8818C327.121 69.3284 328.565 69.1851 329.949 69.0904C333.255 68.8668 336.59 68.8266 339.904 68.9729C340.317 68.9901 340.743 69.0101 341.125 68.9041C341.976 68.6689 342.208 67.9521 342.294 67.3413C342.561 65.4374 342.531 63.5163 342.204 61.6181C342.062 60.7837 341.809 59.8891 340.893 59.3156C340.042 58.7851 338.808 58.6504 337.652 58.5472C334.686 58.2862 331.707 58.0769 328.724 57.9249C327.873 57.8819 326.996 57.8447 326.175 58.0024C325.432 58.1486 324.774 58.4468 324.138 58.7393C323.029 59.2497 321.92 59.76 320.811 60.2704C320.617 60.3593 320.415 60.4539 320.312 60.5945C320.11 60.8668 320.368 61.2138 320.759 61.3744C321.151 61.5349 321.628 61.555 322.088 61.5722C327.671 61.7844 333.259 61.9995 338.843 62.2116C340.244 62.2661 341.645 62.3177 343.047 62.3722C344.121 62.4124 345.234 62.4496 346.245 62.1944C349.348 61.4059 348.059 57.9708 348.003 56.2762C351.446 55.7572 354.988 55.525 358.521 55.5909C358.727 55.5938 358.959 55.6081 359.08 55.7199C359.157 55.7888 359.166 55.8776 359.179 55.9637C359.681 60.454 359.785 64.9643 359.497 69.4632C359.445 70.2804 358.964 71.3643 357.743 71.3126C356.741 71.2725 356.281 70.4668 356.114 69.8073C355.37 66.9313 355.478 63.9923 355.589 61.0762C355.753 56.7723 355.916 52.4684 356.075 48.1645C356.14 46.3982 356.208 44.629 356.565 42.877C356.823 41.6211 357.261 40.3251 358.448 39.333C359.634 38.3409 361.758 37.7502 363.503 38.2549C365.777 38.9115 366.254 40.8871 366.391 42.5358C366.486 41.0419 366.331 39.5394 365.936 38.0685C365.708 37.2341 365.39 36.3825 364.642 35.6943C363.894 35.0061 362.63 34.513 361.375 34.642C359.707 34.814 358.684 35.9438 358.1 36.999C357.296 38.4441 356.862 39.981 356.819 41.5236C357.257 36.8126 356.913 35.6742 358.732 33.042C359.54 31.875 361.109 30.6076 362.983 30.903C364.809 31.1897 365.39 32.7037 365.63 33.9452C365.794 34.8054 365.961 35.6656 366.125 36.5287C365.458 32.1646 364.311 27.8607 361.964 23.7632C360.296 27.1725 359.871 30.9918 357.958 34.404" stroke="#7680B9" stroke-width="2.9638" stroke-miterlimit="10" stroke-linecap="round" stroke-linejoin="round"/>
<path d="M397.034 58.4762C397.821 58.8146 397.954 59.5285 398.001 60.1507C398.229 63.1385 398.268 66.1321 398.122 69.1198C398.1 69.5299 398.066 69.9686 397.696 70.2955C397.12 70.8087 395.147 70.8431 394.189 70.8231C387.947 70.7026 381.719 70.2725 375.572 69.5385C374.162 69.3693 372.748 69.1858 371.317 69.1973C370.375 69.203 369.438 69.2976 368.523 69.4324C366.541 69.7306 364.542 70.284 363.283 71.3506C362.024 72.4144 361.761 74.0832 363.12 75.0897C363.567 75.4223 364.285 75.6718 364.895 75.494C365.553 75.3019 365.763 74.7485 365.823 74.2725C367.143 63.9615 366.382 53.0512 366.382 42.6513L366.421 42.1007" stroke="#7680B9" stroke-width="2.9638" stroke-miterlimit="10" stroke-linecap="round" stroke-linejoin="round"/>
<path d="M41.1381 78.3517C41.1381 71.0285 40.4718 58.825 41.8043 57.0501" stroke="#7680B9" stroke-width="2.9638" stroke-miterlimit="10" stroke-linecap="round" stroke-linejoin="round"/>
<path d="M50.1177 71.2516C70.8575 70.1047 91.7993 71.1886 112.415 72.8086C121.914 73.5541 131.383 74.4516 140.818 75.4953C137.156 74.3627 134.616 72.0545 132.75 69.666C130.885 67.2775 129.518 64.7083 127.321 62.4488C127.278 67.914 127.231 73.3792 127.188 78.8444C126.604 75.3405 125.624 72.1376 125.624 68.3671C125.624 67.0596 125.624 65.2617 124.626 65.0381C123.771 65.0008 123.487 65.7836 123.388 66.3485C122.688 70.38 124.093 74.6036 122.12 78.443C121.785 75.2774 121.613 72.1061 121.609 68.9319C121.609 67.3463 121.647 65.7606 121.729 64.175C121.768 63.3922 121.531 62.9592 122.443 62.6209C123.264 62.3141 124.54 62.2252 125.495 62.165C121.712 62.4058 119.219 63.7564 115.991 64.9865C111.439 66.7212 106.715 68.5362 101.63 69.4509C96.4416 70.3857 91.0084 70.4746 85.7343 69.8151C76.5099 68.6624 67.969 65.623 60.4382 61.97C59.2432 61.3908 58.074 60.7829 56.935 60.1521C54.3559 58.7184 51.9187 57.3794 49.1162 56.1407C48.7637 55.9858 48.3511 55.8281 47.9427 55.8941C47.3968 55.9801 47.1518 56.4045 47.0744 56.7743C46.6833 58.5837 48.4585 80.1777 48.4585 78.3512" stroke="#7680B9" stroke-width="2.9638" stroke-miterlimit="10" stroke-linecap="round" stroke-linejoin="round"/>
<path d="M2 72.1991C13.8894 69.3059 28.2418 64.8386 37.5736 59.1354C40.0452 57.6243 43.5183 55.4537 46.6819 56.1935C35.6007 62.8343 21.9833 68.0271 8.84307 72.7066C15.2649 72.8098 21.6953 72.764 28.1128 72.5718C31.3237 72.4772 34.5303 72.3425 37.7327 72.1733C39.2887 72.0901 40.8447 72.0012 42.3964 71.9009C44.3092 71.7747 45.9942 71.9353 46.0974 70.321C46.1833 69.0221 46.2951 60.4859 44.3049 60.4314C42.9767 60.3942 42.5856 62.4099 42.5985 63.0608C42.6672 66.3697 43.0627 74.8715 43.1315 78.1288" stroke="#7680B9" stroke-width="2.9638" stroke-miterlimit="10" stroke-linecap="round" stroke-linejoin="round"/>
</g>
</svg>
